<?xml version="1.0" encoding="UTF-8"?>
<svg version="1.1" xmlns="http://www.w3.org/2000/svg" width="500" height="500">
<path d="M0 0 C165 0 330 0 500 0 C500 165 500 330 500 500 C335 500 170 500 0 500 C0 335 0 170 0 0 Z " fill="#000000" transform="translate(0,0)"/>
<path d="M0 0 C0.33 0.99 0.66 1.98 1 3 C0.01 3.33 -0.98 3.66 -2 4 C-2 4.66 -2 5.32 -2 6 C-1.01 6.495 -1.01 6.495 0 7 C-4.82312995 10.40456232 -9.12005474 12.4966513 -14.80078125 14.171875 C-15.96391846 14.51831055 -17.12705566 14.86474609 -18.32543945 15.22167969 C-19.64934692 15.60694824 -19.64934692 15.60694824 -21 16 C-19.77708252 15.87882812 -18.55416504 15.75765625 -17.29418945 15.6328125 C-12.64866584 15.17528813 -8.00191737 14.73135765 -3.35473633 14.29101562 C-1.36383232 14.10056883 0.62674744 13.90669365 2.61694336 13.70898438 C16.45865096 12.33706291 30.09111653 11.74087855 44 12 C44.62109375 13.859375 44.62109375 13.859375 45 16 C43.0625 18.25 43.0625 18.25 41 20 C41.33 20.66 41.66 21.32 42 22 C35.35577008 25.77809152 26.39865945 29.96152595 18.609375 28.57421875 C17.81273437 28.28998047 17.81273437 28.28998047 17 28 C17.99 27.67 18.98 27.34 20 27 C18.515 27.0309375 18.515 27.0309375 17 27.0625 C14.38368305 27.07543446 12.21837872 26.86328373 9.60546875 26.40625 C3.46956465 25.60532761 -2.58987744 26.66668703 -8.6875 27.4375 C-11.08695089 27.73024068 -13.48668203 28.02069548 -15.88671875 28.30859375 C-16.94076904 28.44064209 -17.99481934 28.57269043 -19.08081055 28.70874023 C-23.09189137 29.10894258 -26.15355975 29.28214675 -30 28 C-30.556875 28.7425 -30.556875 28.7425 -31.125 29.5 C-33.74694393 31.59755514 -35.73842472 31.21743835 -39 31 C-39 30.67 -39 30.34 -39 30 C-41.91634129 29.7497843 -41.91634129 29.7497843 -45 30 C-45.99 31.485 -45.99 31.485 -47 33 C-48.98022461 33.69189453 -48.98022461 33.69189453 -51.40234375 34.1328125 C-52.28833252 34.2987793 -53.17432129 34.46474609 -54.0871582 34.63574219 C-55.027771 34.79719727 -55.96838379 34.95865234 -56.9375 35.125 C-57.8864917 35.29676758 -58.8354834 35.46853516 -59.81323242 35.64550781 C-66.18220774 36.76909171 -72.53269633 37.6970818 -79 38 C-78.01 37.67 -77.02 37.34 -76 37 C-76 36.34 -76 35.68 -76 35 C-76.99 35.495 -76.99 35.495 -78 36 C-80.3329866 36.04022391 -82.66706666 36.04320247 -85 36 C-83.68 36.99 -82.36 37.98 -81 39 C-82.28261719 39.30550781 -83.56523437 39.61101562 -84.88671875 39.92578125 C-99.62343439 43.44543173 -114.34452162 47.02791387 -129.0625 50.625 C-130.026185 50.86038483 -130.98987 51.09576965 -131.98275757 51.33828735 C-143.6636721 54.19198997 -155.33843348 57.06817555 -167 60 C-166.505 59.01 -166.505 59.01 -166 58 C-165.34 58 -164.68 58 -164 58 C-164 57.34 -164 56.68 -164 56 C-167.465 56.495 -167.465 56.495 -171 57 C-167.20140864 48.08156811 -167.20140864 48.08156811 -163.7109375 46.66796875 C-162.2682937 46.16673123 -160.82274925 45.67379446 -159.375 45.1875 C-158.61316406 44.92541748 -157.85132813 44.66333496 -157.06640625 44.39331055 C-154.71376767 43.58690759 -152.35758672 42.79180823 -150 42 C-149.2977832 41.76313477 -148.59556641 41.52626953 -147.87207031 41.28222656 C-142.6486012 39.5225562 -137.42093922 37.77577058 -132.171875 36.09375 C-128.7734404 34.99748077 -125.99028226 33.99352151 -123 32 C-121.0546875 31.47265625 -121.0546875 31.47265625 -118.875 31.0625 C-114.1028638 30.0829975 -109.59124349 28.6082636 -105 27 C-106.9140661 27.4231998 -108.82809317 27.8465768 -110.74194336 28.27075195 C-112.37927864 28.63346005 -114.01681334 28.99526901 -115.65454102 29.35620117 C-119.43990701 30.19371758 -123.21973616 31.04206967 -126.984375 31.96875 C-128.12390625 32.2471875 -129.2634375 32.525625 -130.4375 32.8125 C-131.44683594 33.06644531 -132.45617187 33.32039063 -133.49609375 33.58203125 C-136 34 -136 34 -139 33 C-139.33 33.33 -139.66 33.66 -140 34 C-142.27307969 36.27307969 -142.92385832 36.3196477 -146 36.625 C-146.70125 36.69976562 -147.4025 36.77453125 -148.125 36.8515625 C-150 37 -150 37 -152 37 C-152.66 37.66 -153.32 38.32 -154 39 C-161.38113293 41.95872609 -167.20666058 43.39166775 -175 42 C-177.81571431 42.75732962 -177.81571431 42.75732962 -180 44 C-182.59878063 45.29939032 -185.07821042 45.67109497 -187.9375 46.1875 C-189.52884766 46.48720703 -189.52884766 46.48720703 -191.15234375 46.79296875 C-194 47 -194 47 -197 45 C-197 45.66 -197 46.32 -197 47 C-196.34 47.33 -195.68 47.66 -195 48 C-195.639375 48.268125 -196.27875 48.53625 -196.9375 48.8125 C-199.33131686 49.88667752 -199.33131686 49.88667752 -200 53 C-201.41433206 53.2236337 -202.83167618 53.42826476 -204.25 53.625 C-205.03890625 53.74101562 -205.8278125 53.85703125 -206.640625 53.9765625 C-209.32152459 54.00319395 -210.72694089 53.36592084 -213 52 C-212.401875 51.7525 -211.80375 51.505 -211.1875 51.25 C-208.89291322 50.15565543 -208.89291322 50.15565543 -207.70092773 48.04589844 C-205.53166415 45.43667943 -203.83124843 44.97504543 -200.59765625 44.015625 C-199.52402832 43.68498047 -198.45040039 43.35433594 -197.34423828 43.01367188 C-196.24063965 42.67916016 -195.13704102 42.34464844 -194 42 C-191.95436726 41.31519869 -189.91135691 40.62251213 -187.87109375 39.921875 C-148.85941037 26.71540883 -107.96801806 13.96629616 -66.85302734 9.49169922 C-63.27113644 9.03460073 -59.81174972 8.39468674 -56.28125 7.64453125 C-47.79679772 5.89406116 -39.2613218 4.5267357 -30.70019531 3.21020508 C-28.10621544 2.80959897 -25.51409838 2.39812885 -22.921875 1.98632812 C-21.24228986 1.72590151 -19.56260563 1.46611294 -17.8828125 1.20703125 C-17.12324249 1.08519974 -16.36367249 0.96336823 -15.58108521 0.83784485 C-10.33724271 0.04636435 -5.30368651 -0.10142587 0 0 Z " fill="#F0C500" transform="translate(319,276)"/>
<path d="M0 0 C2.09375 0.6796875 2.09375 0.6796875 4.09375 2.9921875 C5.28154935 7.37219759 5.59942261 11.54516566 5.78515625 16.0703125 C5.83945328 18.83816878 5.83945328 18.83816878 8.09375 20.6796875 C8.59619141 22.47631836 8.59619141 22.47631836 8.9453125 24.64453125 C9.13903442 25.83792114 9.13903442 25.83792114 9.33666992 27.05541992 C9.46275635 27.90080322 9.58884277 28.74618652 9.71875 29.6171875 C9.85063721 30.47223877 9.98252441 31.32729004 10.1184082 32.20825195 C11.02336794 38.39204596 11.47311637 44.42716777 11.09375 50.6796875 C10.43375 50.6796875 9.77375 50.6796875 9.09375 50.6796875 C8.76375 53.3196875 8.43375 55.9596875 8.09375 58.6796875 C5.71875 57.9921875 5.71875 57.9921875 3.09375 56.6796875 C1.27945296 53.10149055 0.75605362 49.84155425 0.46875 45.8671875 C0.35660156 44.40345703 0.35660156 44.40345703 0.2421875 42.91015625 C0.19320312 42.17410156 0.14421875 41.43804687 0.09375 40.6796875 C-0.44894531 40.88464844 -0.99164063 41.08960938 -1.55078125 41.30078125 C-2.26621094 41.57019531 -2.98164063 41.83960938 -3.71875 42.1171875 C-4.78029297 42.51744141 -4.78029297 42.51744141 -5.86328125 42.92578125 C-7.53297396 43.54193936 -9.21782704 44.11687985 -10.90625 44.6796875 C-11.08800781 46.06994141 -11.08800781 46.06994141 -11.2734375 47.48828125 C-11.44101563 48.68582031 -11.60859375 49.88335937 -11.78125 51.1171875 C-11.94367188 52.31214844 -12.10609375 53.50710938 -12.2734375 54.73828125 C-12.48226562 55.70894531 -12.69109375 56.67960937 -12.90625 57.6796875 C-13.89625 58.1746875 -13.89625 58.1746875 -14.90625 58.6796875 C-14.90625 59.3396875 -14.90625 59.9996875 -14.90625 60.6796875 C-16.88625 61.0096875 -18.86625 61.3396875 -20.90625 61.6796875 C-20.90625 60.6896875 -20.90625 59.6996875 -20.90625 58.6796875 C-21.56625 58.6796875 -22.22625 58.6796875 -22.90625 58.6796875 C-22.90625 58.0196875 -22.90625 57.3596875 -22.90625 56.6796875 C-26.05362182 57.37910346 -28.93213876 58.44047448 -31.90625 59.6796875 C-29.92625 60.3396875 -27.94625 60.9996875 -25.90625 61.6796875 C-28.90625 63.6796875 -28.90625 63.6796875 -30.7109375 63.39453125 C-31.73574219 63.00974609 -31.73574219 63.00974609 -32.78125 62.6171875 C-33.95107422 62.18792969 -33.95107422 62.18792969 -35.14453125 61.75 C-36.05589844 61.39679688 -36.96726563 61.04359375 -37.90625 60.6796875 C-39.05480469 60.24398437 -40.20335937 59.80828125 -41.38671875 59.359375 C-44.56528655 58.14618118 -47.73767837 56.91871165 -50.90625 55.6796875 C-50.87917969 56.61425781 -50.85210937 57.54882812 -50.82421875 58.51171875 C-50.93830541 62.91763698 -52.75249263 65.10638199 -55.28125 68.5546875 C-56.90625 69.6796875 -56.90625 69.6796875 -59.46875 69.5546875 C-61.90625 68.6796875 -61.90625 68.6796875 -63.90625 65.6796875 C-64.3084375 66.15664063 -64.710625 66.63359375 -65.125 67.125 C-67.28692599 69.01194417 -68.58631611 69.17930669 -71.40625 69.5546875 C-76.59734797 70.43001927 -80.80503664 72.34451149 -85.4609375 74.75390625 C-88.15706869 75.77464601 -89.25906398 75.69546818 -91.90625 74.6796875 C-93.14592448 71.09840568 -92.93324061 68.31365428 -91.90625 64.6796875 C-89.85546875 63.5 -89.85546875 63.5 -87.90625 62.6796875 C-87.91148682 62.06673828 -87.91672363 61.45378906 -87.92211914 60.82226562 C-88.1712978 27.08536828 -88.1712978 27.08536828 -84.90625 16.6796875 C-83.58625 16.3496875 -82.26625 16.0196875 -80.90625 15.6796875 C-79.91625 17.3296875 -78.92625 18.9796875 -77.90625 20.6796875 C-76.91625 20.3496875 -75.92625 20.0196875 -74.90625 19.6796875 C-74.67051718 32.51403006 -75.74205768 45.03071882 -77.90625 57.6796875 C-77.31457031 57.65648437 -76.72289062 57.63328125 -76.11328125 57.609375 C-71.56823041 57.50557286 -68.04684941 57.54260393 -63.90625 59.6796875 C-62.94209016 54.66756282 -62.62803835 49.75262427 -62.40625 44.66796875 C-62.3229344 42.92382728 -62.23960053 41.17968668 -62.15625 39.43554688 C-62.03005714 36.70342216 -61.90529878 33.97123655 -61.78125 31.23901367 C-61.65975792 28.59015418 -61.53319931 25.94157142 -61.40625 23.29296875 C-61.37080078 22.47419754 -61.33535156 21.65542633 -61.29882812 20.81184387 C-61.14189182 17.56012615 -60.94120382 14.78454897 -59.90625 11.6796875 C-55.58729204 9.26615217 -53.25524574 9.6796875 -47.90625 9.6796875 C-47.90625 15.2896875 -47.90625 20.8996875 -47.90625 26.6796875 C-47.21917969 25.57109375 -46.53210938 24.4625 -45.82421875 23.3203125 C-44.91415881 21.85671094 -44.00399722 20.39317259 -43.09375 18.9296875 C-42.64193359 18.20007813 -42.19011719 17.47046875 -41.72460938 16.71875 C-36.7653216 8.75493022 -36.7653216 8.75493022 -34.90625 6.6796875 C-32.21875 6.4296875 -32.21875 6.4296875 -29.90625 6.6796875 C-29.41125 8.1646875 -29.41125 8.1646875 -28.90625 9.6796875 C-27.58625 9.6796875 -26.26625 9.6796875 -24.90625 9.6796875 C-27.09753367 17.48715006 -30.70997762 23.72795012 -35.03125 30.5546875 C-36.30722075 32.59216574 -37.580777 34.63115866 -38.8515625 36.671875 C-39.41375488 37.56245605 -39.97594727 38.45303711 -40.55517578 39.37060547 C-42.03141619 41.71158318 -42.03141619 41.71158318 -42.90625 44.6796875 C-41.77445313 45.15019531 -40.64265625 45.62070312 -39.4765625 46.10546875 C-37.99459018 46.73390005 -36.51283027 47.36283246 -35.03125 47.9921875 C-34.28488281 48.30091797 -33.53851563 48.60964844 -32.76953125 48.92773438 C-31.69638672 49.38696289 -31.69638672 49.38696289 -30.6015625 49.85546875 C-29.6118042 50.27179565 -29.6118042 50.27179565 -28.60205078 50.6965332 C-26.90625 51.6796875 -26.90625 51.6796875 -24.90625 54.6796875 C-24.61959473 53.60037964 -24.61959473 53.60037964 -24.32714844 52.49926758 C-17.64458629 27.38336839 -17.64458629 27.38336839 -14.8046875 18.51171875 C-14.13279046 16.39378243 -13.49819328 14.26394873 -12.8828125 12.12890625 C-12.53992188 10.94941406 -12.19703125 9.76992187 -11.84375 8.5546875 C-11.54339844 7.50023437 -11.24304688 6.44578125 -10.93359375 5.359375 C-8.65939394 -0.57256823 -5.91230093 -0.94059333 0 0 Z " fill="#F5CA00" transform="translate(259.90625,218.3203125)"/>
<path d="M0 0 C3.50129871 -0.10003711 6.58093768 0.27021695 10 1 C10.13582325 11.8658603 9.97391287 22.72529121 9.68161011 33.58740234 C9.6440255 35.02319499 9.60959544 36.45907386 9.57839966 37.89501953 C9.53278213 39.9459978 9.47492427 41.99629914 9.4140625 44.046875 C9.3826416 45.24151367 9.3512207 46.43615234 9.31884766 47.66699219 C8.89023076 52.14745003 8.23627385 55.76372615 5 59 C1.75 59.1875 1.75 59.1875 -2 58 C-4.46802742 55.26358189 -6.20996818 52.20844884 -8 49 C-8.35835938 48.40574219 -8.71671875 47.81148437 -9.0859375 47.19921875 C-12.02192698 42.27850038 -14.43279585 37.13440831 -17 32 C-17.66 41.57 -18.32 51.14 -19 61 C-19.99 61 -20.98 61 -22 61 C-22 62.32 -22 63.64 -22 65 C-24.9375 64.1875 -24.9375 64.1875 -28 63 C-28.95812221 60.12563337 -29.12875954 58.32065276 -29.1328125 55.3359375 C-29.13490723 54.38992676 -29.13700195 53.44391602 -29.13916016 52.46923828 C-29.1344873 51.44813965 -29.12981445 50.42704102 -29.125 49.375 C-29.12161621 48.32425293 -29.11823242 47.27350586 -29.11474609 46.19091797 C-29.06368983 38.16558505 -28.89505124 30.14587249 -28.625 22.125 C-28.59422363 21.04395996 -28.56344727 19.96291992 -28.53173828 18.84912109 C-28.49290527 17.84961426 -28.45407227 16.85010742 -28.4140625 15.8203125 C-28.3826416 14.93617676 -28.3512207 14.05204102 -28.31884766 13.14111328 C-28 11 -28 11 -26 9 C-22.89686728 8.29869201 -20.1108486 8.35564766 -17 9 C-10.35636756 14.55895776 -6.86783557 23.37231411 -3 31 C-2.94465088 30.13197754 -2.88930176 29.26395508 -2.83227539 28.36962891 C-2.62510399 25.15275935 -2.41408491 21.93617213 -2.20043945 18.71972656 C-2.10872227 17.32692398 -2.01854468 15.93401914 -1.92993164 14.54101562 C-1.80238058 12.5401029 -1.6688538 10.53957392 -1.53515625 8.5390625 C-1.456604 7.33459473 -1.37805176 6.13012695 -1.29711914 4.88916016 C-1 2 -1 2 0 0 Z " fill="#F6CB00" transform="translate(343,199)"/>
<path d="M0 0 C1.9375 0.375 1.9375 0.375 4 1 C5.26237731 3.52475462 5.09856404 5.31200466 5.0625 8.125 C5.05347656 9.03507812 5.04445313 9.94515625 5.03515625 10.8828125 C5.02355469 11.58148438 5.01195312 12.28015625 5 13 C6.27875 13.103125 7.5575 13.20625 8.875 13.3125 C17.11551061 14.25983429 24.09621392 15.94085113 30 22 C30 22.66 30 23.32 30 24 C29.34 24 28.68 24 28 24 C27.505 25.485 27.505 25.485 27 27 C25.79601562 27.20496094 24.59203125 27.40992188 23.3515625 27.62109375 C21.77601308 27.89306359 20.20049379 28.16520807 18.625 28.4375 C17.8309375 28.57220703 17.036875 28.70691406 16.21875 28.84570312 C11.98605017 29.51417589 11.98605017 29.51417589 8 31 C8.144375 32.0621875 8.28875 33.124375 8.4375 34.21875 C8.62526946 35.6457979 8.81275419 37.07288329 9 38.5 C9.14308594 39.54414063 9.14308594 39.54414063 9.2890625 40.609375 C9.9161622 45.44700129 10.08789528 50.12181196 10 55 C7.525 55.495 7.525 55.495 5 56 C4.40832031 55.20335937 3.81664062 54.40671875 3.20703125 53.5859375 C1.58544442 51.40642592 -0.04727849 49.2358295 -1.6875 47.0703125 C-2.98107357 45.35283137 -4.26309114 43.62591729 -5.5 41.8671875 C-7.52875444 39.10434428 -8.57453815 38.0797741 -12 37.4375 C-15.36491215 38.06842103 -17.11616395 39.16483161 -20 41 C-22.5790953 42.06678902 -25.17830606 43.05906778 -27.79296875 44.03515625 C-30.14806348 44.90495765 -30.14806348 44.90495765 -32 47 C-35.125 47.125 -35.125 47.125 -38 47 C-38 43 -38 43 -36.5390625 41.296875 C-35.90742188 40.78640625 -35.27578125 40.2759375 -34.625 39.75 C-33.99851562 39.22921875 -33.37203125 38.7084375 -32.7265625 38.171875 C-31 37 -31 37 -29 37 C-28.7525 36.443125 -28.505 35.88625 -28.25 35.3125 C-26.77075182 32.57589087 -25.06532561 30.32349131 -23 28 C-22.34 28 -21.68 28 -21 28 C-20.13149826 25.75124253 -20.13149826 25.75124253 -20 23 C-21.87197454 20.30566683 -21.87197454 20.30566683 -24 18 C-24 17.34 -24 16.68 -24 16 C-24.66 16 -25.32 16 -26 16 C-27.36623674 13.26752652 -27.128426 11.01801098 -27 8 C-26.67 7.67 -26.34 7.34 -26 7 C-22.2863421 7.37136579 -18.9433432 8.01758315 -15.375 9.125 C-11.83661028 10.0423603 -10.41072732 10.1333947 -7 9 C-4.9033993 6.95838885 -4.9033993 6.95838885 -3.1875 4.4375 C-2.28064453 3.19806641 -2.28064453 3.19806641 -1.35546875 1.93359375 C-0.68451172 0.97646484 -0.68451172 0.97646484 0 0 Z " fill="#F0C600" transform="translate(400,261)"/>
<path d="M0 0 C1.03447266 0.02223633 1.03447266 0.02223633 2.08984375 0.04492188 C5.91356159 0.26060003 7.7895637 0.87111216 10.8359375 3.23828125 C13.90913458 7.30644061 13.55381357 10.0424999 12.875 14.9375 C11.60078789 22.46788468 9.82162993 27.04804872 3.875 31.9375 C4.79495161 35.03188268 5.51283286 36.64776629 8.0625 38.6875 C11.34072351 40.14448822 14.31822079 40.58879616 17.875 40.9375 C17.90198189 42.56240954 17.92138757 44.18744633 17.9375 45.8125 C17.94910156 46.71742188 17.96070313 47.62234375 17.97265625 48.5546875 C17.875 50.9375 17.875 50.9375 16.875 52.9375 C5.38020652 53.68580482 5.38020652 53.68580482 0.578125 50.4921875 C-3.15655213 47.08300976 -6.14028107 42.99981875 -9.125 38.9375 C-9.29343931 41.18736799 -9.45968654 43.43740017 -9.625 45.6875 C-9.7178125 46.94046875 -9.810625 48.1934375 -9.90625 49.484375 C-10.06338402 51.96484771 -10.125 54.45205517 -10.125 56.9375 C-11.125 59.1875 -11.125 59.1875 -12.125 60.9375 C-13.445 60.9375 -14.765 60.9375 -16.125 60.9375 C-16.455 58.6275 -16.785 56.3175 -17.125 53.9375 C-17.455 54.9275 -17.785 55.9175 -18.125 56.9375 C-18.785 56.9375 -19.445 56.9375 -20.125 56.9375 C-20.35605878 44.0835221 -20.16496736 31.65086798 -18.125 18.9375 C-17.135 18.6075 -16.145 18.2775 -15.125 17.9375 C-15.125 18.9275 -15.125 19.9175 -15.125 20.9375 C-13.475 21.2675 -11.825 21.5975 -10.125 21.9375 C-9.795 20.2875 -9.465 18.6375 -9.125 16.9375 C-8.465 16.9375 -7.805 16.9375 -7.125 16.9375 C-7.125 19.5775 -7.125 22.2175 -7.125 24.9375 C-1.79532132 20.92582932 -1.79532132 20.92582932 0.875 14.9375 C0.875 13.9475 0.875 12.9575 0.875 11.9375 C-5.88715448 12.34689975 -11.79662748 13.50703809 -18.125 15.9375 C-18.125 15.2775 -18.125 14.6175 -18.125 13.9375 C-17.465 13.6075 -16.805 13.2775 -16.125 12.9375 C-19.095 12.4425 -19.095 12.4425 -22.125 11.9375 C-22.125 9.9575 -22.125 7.9775 -22.125 5.9375 C-14.86544733 1.49287591 -8.53180398 -0.52416565 0 0 Z " fill="#F5C900" transform="translate(294.125,211.0625)"/>
<path d="M0 0 C0.9075 0.103125 1.815 0.20625 2.75 0.3125 C2.75 0.9725 2.75 1.6325 2.75 2.3125 C4.07 2.3125 5.39 2.3125 6.75 2.3125 C6.31972335 8.20541933 3.73239538 12.09876091 0.625 16.9375 C-0.37466675 18.53064248 -1.37336222 20.12439484 -2.37109375 21.71875 C-2.86077637 22.49605469 -3.35045898 23.27335937 -3.85498047 24.07421875 C-6.76999795 28.75130665 -9.5048622 33.53427379 -12.25 38.3125 C-11.55519531 38.41433594 -10.86039063 38.51617187 -10.14453125 38.62109375 C-6.75947448 39.42967006 -4.02712981 40.77925713 -0.9375 42.375 C0.66544922 43.19677734 0.66544922 43.19677734 2.30078125 44.03515625 C3.10902344 44.45667969 3.91726562 44.87820313 4.75 45.3125 C3.76 45.8075 3.76 45.8075 2.75 46.3125 C3.245 48.7875 3.245 48.7875 3.75 51.3125 C1.275 51.8075 1.275 51.8075 -1.25 52.3125 C1.06 52.9725 3.37 53.6325 5.75 54.3125 C2.75 56.3125 2.75 56.3125 0.61328125 56.16015625 C-3.40254365 54.97129676 -7.20864753 53.38134576 -11.0625 51.75 C-11.85076172 51.42064453 -12.63902344 51.09128906 -13.45117188 50.75195312 C-15.38583796 49.94291094 -17.31815753 49.12826148 -19.25 48.3125 C-19.2190625 49.21226562 -19.188125 50.11203125 -19.15625 51.0390625 C-19.28093793 55.39274951 -20.59349159 58.30927135 -22.25 62.3125 C-24.56 62.3125 -26.87 62.3125 -29.25 62.3125 C-29.25 61.6525 -29.25 60.9925 -29.25 60.3125 C-29.91 60.3125 -30.57 60.3125 -31.25 60.3125 C-31.3410621 50.10196987 -30.83431578 39.98038451 -30.18798828 29.79370117 C-30.06169755 27.7489395 -29.94365507 25.70365316 -29.83349609 23.65795898 C-29.67304903 20.68590198 -29.48783199 17.7163271 -29.296875 14.74609375 C-29.2518988 13.82847763 -29.20692261 12.91086151 -29.1605835 11.96543884 C-29.10082336 11.12018143 -29.04106323 10.27492401 -28.97949219 9.40405273 C-28.93507996 8.66001694 -28.89066772 7.91598114 -28.84490967 7.1493988 C-28.25 5.3125 -28.25 5.3125 -26.70440674 4.05677795 C-24.25 3.3125 -24.25 3.3125 -16.25 3.3125 C-16.25 8.9225 -16.25 14.5325 -16.25 20.3125 C-13.46400914 15.6037031 -13.46400914 15.6037031 -10.68652344 10.88989258 C-4.45330579 0.42820248 -4.45330579 0.42820248 0 0 Z " fill="#F8CC00" transform="translate(123.25,247.6875)"/>
<path d="M0 0 C0.99 0.66 1.98 1.32 3 2 C4.2236068 2.0745356 4.2236068 2.0745356 6 1 C5.690625 2.36125 5.690625 2.36125 5.375 3.75 C4.9872755 7.11027897 5.19588033 8.24075815 7 11 C7.12375 9.88625 7.2475 8.7725 7.375 7.625 C8 4 8 4 10 2 C10.20216181 11.40052422 10.12225958 20.69898141 9.1875 30.0625 C9.08236084 31.20199097 9.08236084 31.20199097 8.97509766 32.36450195 C7.92972795 41.90741285 5.14479926 50.4431778 -2.1875 56.9375 C-6.48723853 58.56184567 -10.46629914 58.63936807 -15 58 C-19.4649205 55.97049068 -21.55952387 53.82950484 -23.39575195 49.28588867 C-24.71895073 44.28018762 -24.43433382 39.07870452 -24.375 33.9375 C-24.36919922 32.73697998 -24.36339844 31.53645996 -24.35742188 30.29956055 C-24.23405646 21.86787737 -23.51302225 14.09252999 -21 6 C-16.78952566 5.75940147 -15.2099725 6.316011 -11 8 C-11 20.54 -11 33.08 -11 46 C-6.98881938 45.48888421 -6.98881938 45.48888421 -5.76953125 43.03125 C-3.59150649 37.27059676 -2.39693168 32.15244097 -2 26 C-1.34 26 -0.68 26 0 26 C-0.33 25.34 -0.66 24.68 -1 24 C-1.14485164 20.08900567 -0.94284809 16.77139234 0 13 C-0.33 12.01 -0.66 11.02 -1 10 C-0.91538508 8.26675881 -0.76395645 6.53607188 -0.5625 4.8125 C-0.46066406 3.91144531 -0.35882813 3.01039063 -0.25390625 2.08203125 C-0.17011719 1.39496094 -0.08632812 0.70789063 0 0 Z " fill="#F6CB00" transform="translate(157,240)"/>
<path d="M0 0 C4.29 0 8.58 0 13 0 C12.34 0.66 11.68 1.32 11 2 C11.33 2.66 11.66 3.32 12 4 C9.03 4.66 6.06 5.32 3 6 C2.67 5.34 2.34 4.68 2 4 C-2.33741302 4.64118279 -6.66968519 5.31272925 -11 6 C-12.12269287 6.17668213 -12.12269287 6.17668213 -13.26806641 6.35693359 C-15.59714445 6.72789855 -17.92365196 7.1123164 -20.25 7.5 C-21.00079834 7.61835205 -21.75159668 7.7367041 -22.52514648 7.85864258 C-24.36289715 8.17147376 -26.1842675 8.57773663 -28 9 C-28.33 9.66 -28.66 10.32 -29 11 C-26.03 11.33 -23.06 11.66 -20 12 C-23.75890322 13.87945161 -26.23157971 14.27835523 -30.32421875 14.66015625 C-36.84832343 15.48876517 -43.24277717 17.31516064 -49.6171875 18.8984375 C-50.77476562 19.17945313 -51.93234375 19.46046875 -53.125 19.75 C-54.70667969 20.14445312 -54.70667969 20.14445312 -56.3203125 20.546875 C-59 21 -59 21 -62 20 C-62.495 20.495 -62.495 20.495 -63 21 C-65.27307969 23.27307969 -65.92385832 23.3196477 -69 23.625 C-69.70125 23.69976562 -70.4025 23.77453125 -71.125 23.8515625 C-73 24 -73 24 -75 24 C-75.66 24.66 -76.32 25.32 -77 26 C-84.38113293 28.95872609 -90.20666058 30.39166775 -98 29 C-100.81571431 29.75732962 -100.81571431 29.75732962 -103 31 C-105.59878063 32.29939032 -108.07821042 32.67109497 -110.9375 33.1875 C-112.52884766 33.48720703 -112.52884766 33.48720703 -114.15234375 33.79296875 C-117 34 -117 34 -120 32 C-120 32.66 -120 33.32 -120 34 C-119.34 34.33 -118.68 34.66 -118 35 C-118.639375 35.268125 -119.27875 35.53625 -119.9375 35.8125 C-122.33131686 36.88667752 -122.33131686 36.88667752 -123 40 C-124.41433206 40.2236337 -125.83167618 40.42826476 -127.25 40.625 C-128.03890625 40.74101562 -128.8278125 40.85703125 -129.640625 40.9765625 C-132.32152459 41.00319395 -133.72694089 40.36592084 -136 39 C-135.401875 38.7525 -134.80375 38.505 -134.1875 38.25 C-131.89291322 37.15565543 -131.89291322 37.15565543 -130.70092773 35.04589844 C-128.53166415 32.43667943 -126.83124843 31.97504543 -123.59765625 31.015625 C-122.52402832 30.68498047 -121.45040039 30.35433594 -120.34423828 30.01367188 C-119.24063965 29.67916016 -118.13704102 29.34464844 -117 29 C-114.95436726 28.31519869 -112.91135691 27.62251213 -110.87109375 26.921875 C-88.79502026 19.44855182 -66.60297288 12.793096 -44 7.125 C-43.23132599 6.93164062 -42.46265198 6.73828125 -41.67068481 6.5390625 C-17.0952231 0.38078007 -17.0952231 0.38078007 -12 2 C-12 2.33 -12 2.66 -12 3 C-6.06 2.505 -6.06 2.505 0 2 C0 1.34 0 0.68 0 0 Z " fill="#E8BF00" transform="translate(242,289)"/>
<path d="M0 0 C3.05991258 1.74209309 5.40040031 3.80080062 7 7 C7.87155311 16.82997609 7.02661202 24.82820474 0.87109375 32.734375 C-7.95412245 42.79541224 -7.95412245 42.79541224 -13.125 43.3125 C-16 43 -16 43 -18 41 C-18.08004498 38.447811 -18.04135513 36.01519689 -17.90625 33.47265625 C-17.86159607 32.35557533 -17.86159607 32.35557533 -17.81604004 31.21592712 C-17.68818092 28.02414981 -17.53625699 24.83362233 -17.38623047 21.64282227 C-17.28023976 19.31554206 -17.18668283 16.98798851 -17.09375 14.66015625 C-17.05527954 13.93820572 -17.01680908 13.21625519 -16.97717285 12.47242737 C-16.82802408 8.69697226 -16.84055244 7.23917134 -19 4 C-12.86502092 1.13103275 -6.85631588 -1.5570641 0 0 Z " fill="#E7E7E7" transform="translate(205,172)"/>
<path d="M0 0 C1.32 0.33 2.64 0.66 4 1 C3.53932287 5.18650443 1.93191502 7.99504299 -0.18774414 11.52172852 C-6.12383784 21.511853 -7.60861598 30.49835993 -8 42 C-9.875 42.625 -9.875 42.625 -12 43 C-14 41 -14 41 -14.14770508 39.15576172 C-14.10540771 38.42115723 -14.06311035 37.68655273 -14.01953125 36.9296875 C-13.99052734 36.115 -13.96152344 35.3003125 -13.93164062 34.4609375 C-13.85326405 32.75978031 -13.76245905 31.05914245 -13.65820312 29.359375 C-13.45879079 22.83501247 -15.10003593 19.15689139 -19 14 C-19.66 13.01 -20.32 12.02 -21 11 C-23.64 11.33 -26.28 11.66 -29 12 C-29.08040527 12.90766113 -29.16081055 13.81532227 -29.24365234 14.75048828 C-29.54731026 18.13924137 -29.85743736 21.52727579 -30.171875 24.91503906 C-30.3062828 26.37737006 -30.43815805 27.83993625 -30.56738281 29.30273438 C-30.7542982 31.41344047 -30.95050771 33.52311417 -31.1484375 35.6328125 C-31.26364746 36.90012207 -31.37885742 38.16743164 -31.49755859 39.47314453 C-31.98021951 42.8611521 -32.80718977 45.80051263 -34 49 C-37.875 47.125 -37.875 47.125 -39 46 C-40.00296731 35.45718088 -38.09785319 24.483622 -37 14 C-37.99 14.495 -37.99 14.495 -39 15 C-41.3329866 15.04022391 -43.66706666 15.04320247 -46 15 C-46.66 13.68 -47.32 12.36 -48 11 C-44.8798511 10.00491321 -41.75318038 9.03201406 -38.625 8.0625 C-37.75488281 7.78470703 -36.88476562 7.50691406 -35.98828125 7.22070312 C-30.1580125 5.42843533 -24.15369632 3.76501398 -18 4 C-13.84652348 7.38836242 -12.43273799 12.13452402 -10 17 C-6.7 11.39 -3.4 5.78 0 0 Z " fill="#E6E6E6" transform="translate(275,156)"/>
<path d="M0 0 C2.875 0.75 2.875 0.75 3.875 1.75 C4.92146648 14.81070662 2.6825078 27.85227809 0.875 40.75 C-3 39.875 -3 39.875 -4.125 38.75 C-4.19679964 37.23071962 -4.20892007 35.70832518 -4.1875 34.1875 C-4.17847656 33.36121094 -4.16945313 32.53492188 -4.16015625 31.68359375 C-4.14855469 31.04550781 -4.13695312 30.40742188 -4.125 29.75 C-4.66769531 29.9665625 -5.21039063 30.183125 -5.76953125 30.40625 C-6.48496094 30.6846875 -7.20039063 30.963125 -7.9375 31.25 C-8.99904297 31.66765625 -8.99904297 31.66765625 -10.08203125 32.09375 C-12.125 32.75 -12.125 32.75 -15.125 32.75 C-15.3725 33.595625 -15.62 34.44125 -15.875 35.3125 C-17.26473627 39.13427474 -19.03620838 42.26868063 -21.125 45.75 C-22.115 45.42 -23.105 45.09 -24.125 44.75 C-24.19562944 41.71293391 -24.19033688 39.03094859 -23.5 36.0625 C-22.81222576 33.48169859 -22.81222576 33.48169859 -25.125 30.75 C-24.125 29.75 -24.125 29.75 -21.5625 29.6875 C-20.3559375 29.7184375 -20.3559375 29.7184375 -19.125 29.75 C-18.96644531 29.20907715 -18.80789063 28.6681543 -18.64453125 28.11083984 C-16.77823658 22.1059594 -14.231121 16.82898305 -11.125 11.375 C-10.68671875 10.58222656 -10.2484375 9.78945312 -9.796875 8.97265625 C-4.55183504 -0.3641468 -4.55183504 -0.3641468 0 0 Z " fill="#EEEEEE" transform="translate(303.125,150.25)"/>
<path d="M0 0 C2.375 0.375 2.375 0.375 4.375 2.375 C5.44908457 15.26401488 4.02796191 28.75411325 1.375 41.375 C-2.5 40.5 -2.5 40.5 -3.625 39.375 C-3.85692865 37.86030552 -4.03715238 36.33745438 -4.1875 34.8125 C-4.27128906 33.98621094 -4.35507813 33.15992188 -4.44140625 32.30859375 C-4.50199219 31.67050781 -4.56257813 31.03242188 -4.625 30.375 C-9.80176066 31.56176727 -13.55418554 32.80224127 -16.625 37.3125 C-18.08900443 40.29681671 -19.4260834 43.27536195 -20.625 46.375 C-21.615 46.045 -22.605 45.715 -23.625 45.375 C-23.51671875 44.25351563 -23.51671875 44.25351563 -23.40625 43.109375 C-23.3134375 42.12453125 -23.220625 41.1396875 -23.125 40.125 C-22.98578125 38.66320312 -22.98578125 38.66320312 -22.84375 37.171875 C-22.66699832 34.91197847 -22.625 32.64179807 -22.625 30.375 C-21.305 30.375 -19.985 30.375 -18.625 30.375 C-18.45991943 29.82755127 -18.29483887 29.28010254 -18.12475586 28.71606445 C-16.32310898 23.00425324 -14.02250317 17.8302104 -11.1875 12.5625 C-10.80529297 11.82580078 -10.42308594 11.08910156 -10.02929688 10.33007812 C-4.9058812 0.70084017 -4.9058812 0.70084017 0 0 Z " fill="#F5F5F5" transform="translate(176.625,176.625)"/>
<path d="M0 0 C2.58479403 0.13697199 5.13348876 0.44558733 7.70483398 0.73852539 C8.46223877 0.82481201 9.21964355 0.91109863 10 1 C10.0541112 7.51986282 9.91783698 13.99796386 9.5625 20.5078125 C9.49591187 21.78505692 9.49591187 21.78505692 9.42797852 23.08810425 C9.28775311 25.76720431 9.14394392 28.44609742 9 31.125 C8.90340707 32.95832077 8.80705086 34.79165403 8.7109375 36.625 C8.47668952 41.08348211 8.23923073 45.54178258 8 50 C7.34 50 6.68 50 6 50 C5.67 52.31 5.34 54.62 5 57 C3.125 56.6875 3.125 56.6875 1 56 C-1.08335776 52.87496336 -2 50.72863529 -2 47 C-2.00523682 45.78030518 -2.01047363 44.56061035 -2.01586914 43.30395508 C-2.03394053 39.05965919 -2.04544839 34.81536804 -2.05493164 30.57104492 C-2.05995267 28.74096092 -2.06677078 26.91088091 -2.07543945 25.08081055 C-2.08763922 22.43537415 -2.09325766 19.78999075 -2.09765625 17.14453125 C-2.10281754 16.33385696 -2.10797882 15.52318268 -2.11329651 14.6879425 C-2.11375206 10.02077796 -1.85461662 5.59407994 -1 1 C-0.67 0.67 -0.34 0.34 0 0 Z " fill="#F4C900" transform="translate(359,196)"/>
<path d="M0 0 C2.375 0.375 2.375 0.375 4.375 2.375 C4.5 5 4.5 5 4.375 7.375 C3.75625 7.66375 3.1375 7.9525 2.5 8.25 C-3.12358607 11.22719262 -6.20054724 17.15624542 -8.875 22.6875 C-9.39578125 23.75613281 -9.9165625 24.82476562 -10.453125 25.92578125 C-11.03320312 27.13814453 -11.03320312 27.13814453 -11.625 28.375 C-11.955 27.715 -12.285 27.055 -12.625 26.375 C-14.86741161 28.61741161 -15.58668219 30.40837767 -16.625 33.375 C-16.625 34.035 -16.625 34.695 -16.625 35.375 C-17.11370547 39.7733492 -18.14352244 42.70672882 -20.625 46.375 C-21.615 46.045 -22.605 45.715 -23.625 45.375 C-23.51671875 44.25351563 -23.51671875 44.25351563 -23.40625 43.109375 C-23.3134375 42.12453125 -23.220625 41.1396875 -23.125 40.125 C-22.98578125 38.66320312 -22.98578125 38.66320312 -22.84375 37.171875 C-22.66699832 34.91197847 -22.625 32.64179807 -22.625 30.375 C-21.305 30.375 -19.985 30.375 -18.625 30.375 C-18.45991943 29.82755127 -18.29483887 29.28010254 -18.12475586 28.71606445 C-16.32310898 23.00425324 -14.02250317 17.8302104 -11.1875 12.5625 C-10.80529297 11.82580078 -10.42308594 11.08910156 -10.02929688 10.33007812 C-4.9058812 0.70084017 -4.9058812 0.70084017 0 0 Z M-19.625 35.375 C-19.295 36.035 -18.965 36.695 -18.625 37.375 C-18.295 36.715 -17.965 36.055 -17.625 35.375 C-18.285 35.375 -18.945 35.375 -19.625 35.375 Z " fill="#F3F3F3" transform="translate(176.625,176.625)"/>
<path d="M0 0 C0.33 0 0.66 0 1 0 C1.15178302 9.05638678 0.69037426 17.97582223 0 27 C3.07725248 24.09539865 5.46853192 21.6598616 7.125 17.75 C8.0078125 15.671875 8.0078125 15.671875 9 14 C9.99 13.67 10.98 13.34 12 13 C12.33 13.33 12.66 13.66 13 14 C13.33 13.67 13.66 13.34 14 13 C13.95875 12.030625 13.9175 11.06125 13.875 10.0625 C13.91625 9.051875 13.9575 8.04125 14 7 C14.99 6.34 15.98 5.68 17 5 C17.62972491 13.65871749 15.17663656 19.70547029 9.5625 26.3125 C2.51823776 33.82138379 2.51823776 33.82138379 -2.1875 34.375 C-5 34 -5 34 -7 32 C-7.43214516 26.59818554 -6.44486429 22.14732905 -5 17 C-3.68 16.67 -2.36 16.34 -1 16 C-1.09539062 15.26394531 -1.19078125 14.52789062 -1.2890625 13.76953125 C-1.39992187 12.79371094 -1.51078125 11.81789062 -1.625 10.8125 C-1.74101562 9.84957031 -1.85703125 8.88664063 -1.9765625 7.89453125 C-2.00194942 4.75924677 -1.34359283 2.80513465 0 0 Z " fill="#F0F0F0" transform="translate(194,181)"/>
<path d="M0 0 C1.65 0 3.3 0 5 0 C5 0.66 5 1.32 5 2 C5.99 2.495 5.99 2.495 7 3 C7 3.66 7 4.32 7 5 C7.99 5.495 7.99 5.495 9 6 C5.37 6.66 1.74 7.32 -2 8 C-2 8.33 -2 8.66 -2 9 C-6.39532675 9.50452107 -10.79133638 10.00282816 -15.1875 10.5 C-16.43337891 10.64308594 -17.67925781 10.78617187 -18.96289062 10.93359375 C-20.16494141 11.06894531 -21.36699219 11.20429688 -22.60546875 11.34375 C-23.71043701 11.46943359 -24.81540527 11.59511719 -25.95385742 11.72460938 C-30.00688669 12.09102895 -33.11761696 12.29412768 -37 11 C-37.37125 11.495 -37.7425 11.99 -38.125 12.5 C-40.74694393 14.59755514 -42.73842472 14.21743835 -46 14 C-46 13.67 -46 13.34 -46 13 C-48.91634129 12.7497843 -48.91634129 12.7497843 -52 13 C-52.99 14.485 -52.99 14.485 -54 16 C-56.49609375 16.73046875 -56.49609375 16.73046875 -59.4375 17.1875 C-60.40558594 17.34605469 -61.37367188 17.50460937 -62.37109375 17.66796875 C-65 18 -65 18 -68 18 C-67 15 -67 15 -65.27416992 14.12109375 C-59.66732993 12.4032743 -54.08042415 11.05524971 -48.3125 10 C-46.9680481 9.75008301 -46.9680481 9.75008301 -45.59643555 9.49511719 C-38.85552766 8.2721548 -32.09597259 7.20753001 -25.3125 6.25 C-23.98762573 6.05857422 -23.98762573 6.05857422 -22.63598633 5.86328125 C-17.43717013 5.16414873 -12.45956056 4.92208684 -7.21557617 5.15136719 C-4.6423741 4.97556716 -3.14165627 4.42953862 -1 3 C-0.67 2.01 -0.34 1.02 0 0 Z " fill="#705C00" transform="translate(326,293)"/>
<path d="M0 0 C4.29 0 8.58 0 13 0 C12.34 0.66 11.68 1.32 11 2 C11.495 2.99 11.495 2.99 12 4 C9.03 4.66 6.06 5.32 3 6 C2.505 5.01 2.505 5.01 2 4 C-2.33741302 4.64118279 -6.66968519 5.31272925 -11 6 C-11.74846191 6.11778809 -12.49692383 6.23557617 -13.26806641 6.35693359 C-15.59714445 6.72789855 -17.92365196 7.1123164 -20.25 7.5 C-21.00079834 7.61835205 -21.75159668 7.7367041 -22.52514648 7.85864258 C-24.36289715 8.17147376 -26.1842675 8.57773663 -28 9 C-28.33 9.66 -28.66 10.32 -29 11 C-26.03 11.33 -23.06 11.66 -20 12 C-23.44020285 13.72010143 -24.73923649 14.24612693 -28.3125 14.5 C-32.39503997 14.86930871 -36.06296844 15.84204954 -40 17 C-41.32 17 -42.64 17 -44 17 C-43.67 16.01 -43.34 15.02 -43 14 C-42.34 14 -41.68 14 -41 14 C-40.67 13.34 -40.34 12.68 -40 12 C-42.64 12.33 -45.28 12.66 -48 13 C-44.96474514 10.97649676 -43.80573798 10.67875982 -40.3125 10.375 C-39.50425781 10.30023438 -38.69601563 10.22546875 -37.86328125 10.1484375 C-36.94095703 10.07496094 -36.94095703 10.07496094 -36 10 C-35.67 8.35 -35.34 6.7 -35 5 C-31.91979223 4.29795962 -28.83548264 3.61594792 -25.75 2.9375 C-24.87730469 2.73833984 -24.00460938 2.53917969 -23.10546875 2.33398438 C-22.26113281 2.15029297 -21.41679687 1.96660156 -20.546875 1.77734375 C-19.38430176 1.51812134 -19.38430176 1.51812134 -18.19824219 1.25366211 C-15.84824709 0.98248875 -14.23802732 1.28445541 -12 2 C-12 2.33 -12 2.66 -12 3 C-6.06 2.505 -6.06 2.505 0 2 C0 1.34 0 0.68 0 0 Z " fill="#DAB300" transform="translate(242,289)"/>
<path d="M0 0 C0.33 0 0.66 0 1 0 C1.02712351 2.39591038 1.0468982 4.79150957 1.0625 7.1875 C1.07087891 7.86103516 1.07925781 8.53457031 1.08789062 9.22851562 C1.10606538 12.95434131 0.89299392 16.3788042 0 20 C-3.875 19.125 -3.875 19.125 -5 18 C-5.07179964 16.48071962 -5.08392007 14.95832518 -5.0625 13.4375 C-5.05347656 12.61121094 -5.04445313 11.78492188 -5.03515625 10.93359375 C-5.02355469 10.29550781 -5.01195312 9.65742188 -5 9 C-5.81404297 9.32484375 -5.81404297 9.32484375 -6.64453125 9.65625 C-7.35996094 9.9346875 -8.07539063 10.213125 -8.8125 10.5 C-9.52019531 10.7784375 -10.22789062 11.056875 -10.95703125 11.34375 C-13 12 -13 12 -16 12 C-16.2475 12.845625 -16.495 13.69125 -16.75 14.5625 C-18.13973627 18.38427474 -19.91120838 21.51868063 -22 25 C-22.99 24.67 -23.98 24.34 -25 24 C-25.07062944 20.96293391 -25.06533688 18.28094859 -24.375 15.3125 C-23.68722576 12.73169859 -23.68722576 12.73169859 -26 10 C-25 9 -25 9 -22.625 8.9375 C-21.75875 8.958125 -20.8925 8.97875 -20 9 C-19.01 9 -18.02 9 -17 9 C-17 8.01 -17 7.02 -17 6 C-16.01 5.67 -15.02 5.34 -14 5 C-14 5.66 -14 6.32 -14 7 C-12.53919067 6.38080922 -11.08142545 5.75443308 -9.625 5.125 C-8.81289063 4.77695313 -8.00078125 4.42890625 -7.1640625 4.0703125 C-4.86197701 3.07553933 -4.86197701 3.07553933 -3 1 C-2.01 1.33 -1.02 1.66 0 2 C0 1.34 0 0.68 0 0 Z " fill="#F3F3F3" transform="translate(304,171)"/>
<path d="M0 0 C4.875 0.875 4.875 0.875 6 2 C6.13164672 4.7829504 6.18969104 7.52851351 6.1875 10.3125 C6.18814453 11.14885986 6.18878906 11.98521973 6.18945312 12.84692383 C6.11226048 22.29512823 5.10639444 31.62528284 4 41 C2.515 41.495 2.515 41.495 1 42 C0.01 41.34 -0.98 40.68 -2 40 C-2.328125 37.93237305 -2.328125 37.93237305 -2.25 35.32421875 C-2.22292969 34.33728027 -2.19585937 33.3503418 -2.16796875 32.33349609 C-1.85656159 26.15333126 -1.45597899 19.98362111 -1 13.8125 C-0.90328878 12.46552038 -0.80693243 11.11851523 -0.7109375 9.77148438 C-0.47743008 6.51405585 -0.24037781 3.2569275 0 0 Z " fill="#BDBDBD" transform="translate(219,167)"/>
<path d="M0 0 C5.5952381 0.5952381 5.5952381 0.5952381 8 3 C9.19415594 11.77565763 7.61992191 19.59713148 2.69140625 26.953125 C1.375 28.625 1.375 28.625 -1 31 C-1.66 31 -2.32 31 -3 31 C-3.25975688 20.82618876 -2.88177509 11.02697678 -1 1 C-0.67 0.67 -0.34 0.34 0 0 Z " fill="#080808" transform="translate(197,177)"/>
<path d="M0 0 C0.33 0 0.66 0 1 0 C1.11853687 6.97297853 0.79786399 13.81046244 0.125 20.75 C0.00705078 22.10931641 0.00705078 22.10931641 -0.11328125 23.49609375 C-0.56592376 28.26624944 -1.22757119 32.50190334 -3 37 C-6.875 35.125 -6.875 35.125 -8 34 C-8.57959986 25.3741903 -7.64998237 16.60065961 -7 8 C-6.34 8 -5.68 8 -5 8 C-4.67 7.34 -4.34 6.68 -4 6 C-2 7 -2 7 -1 9 C-0.67 6.03 -0.34 3.06 0 0 Z M-3 10 C-3 13 -3 13 -3 13 Z " fill="#E0E0E0" transform="translate(244,168)"/>
<path d="M0 0 C0.66 0.33 1.32 0.66 2 1 C4.3400417 0.71758117 6.67504723 0.38749213 9 0 C9.495 1.485 9.495 1.485 10 3 C8.37548581 3.33569297 6.75037083 3.6684796 5.125 4 C3.76761719 4.2784375 3.76761719 4.2784375 2.3828125 4.5625 C0 5 0 5 -2 5 C-2.66 5.66 -3.32 6.32 -4 7 C-11.30196158 9.92699027 -17.28117259 11.59699877 -25 10 C-27.34292659 9.90574433 -29.65428885 9.95113102 -32 10 C-28.32194715 6.65365484 -24.24412798 5.70485787 -19.5625 4.4375 C-18.06316959 4.02180582 -16.56445308 3.60389009 -15.06640625 3.18359375 C-14.00860962 2.88714966 -14.00860962 2.88714966 -12.92944336 2.5847168 C-10.82418819 1.97763127 -10.82418819 1.97763127 -8.1640625 0.859375 C-5.34151113 -0.26149377 -3.008325 -0.200555 0 0 Z " fill="#463900" transform="translate(169,308)"/>
<path d="M0 0 C-0.5625 1.875 -0.5625 1.875 -2 4 C-5.625 5.25 -5.625 5.25 -9 6 C-8.01 6 -7.02 6 -6 6 C-6.33 6.99 -6.66 7.98 -7 9 C-7.66 9 -8.32 9 -9 9 C-9.45375 9.515625 -9.9075 10.03125 -10.375 10.5625 C-10.91125 11.036875 -11.4475 11.51125 -12 12 C-13.875 11.625 -13.875 11.625 -16 11 C-16.845625 11.185625 -17.69125 11.37125 -18.5625 11.5625 C-21 12 -21 12 -24 10 C-21.69 9.01 -19.38 8.02 -17 7 C-17.70125 7.13277344 -18.4025 7.26554687 -19.125 7.40234375 C-24.7404558 8.44761202 -30.32433509 9.3574719 -36 10 C-36 9.34 -36 8.68 -36 8 C-6.97585769 -0.24142313 -6.97585769 -0.24142313 0 0 Z " fill="#F0C500" transform="translate(208,295)"/>
<path d="M0 0 C1.24284687 2.93763806 1.01320986 3.96662773 -0.1875 7 C-1.89994782 9.83439639 -3.47019766 11.8782303 -6 14 C-6.66 14 -7.32 14 -8 14 C-8 11.36 -8 8.72 -8 6 C-8.99 6.495 -8.99 6.495 -10 7 C-10.65213292 9.02463255 -10.65213292 9.02463255 -11 11 C-12.65 10.67 -14.3 10.34 -16 10 C-16 9.01 -16 8.02 -16 7 C-16.66 6.67 -17.32 6.34 -18 6 C-18 5.34 -18 4.68 -18 4 C-16.75108386 3.51801537 -15.50081192 3.03954323 -14.25 2.5625 C-13.55390625 2.29566406 -12.8578125 2.02882812 -12.140625 1.75390625 C-7.95180322 0.27864602 -4.46051146 -0.10137526 0 0 Z " fill="#181300" transform="translate(295,222)"/>
<path d="M0 0 C5 1 5 1 6 2 C6.08651611 3.41570123 6.10704904 4.835595 6.09765625 6.25390625 C6.09443359 7.10791016 6.09121094 7.96191406 6.08789062 8.84179688 C6.07951172 9.73962891 6.07113281 10.63746094 6.0625 11.5625 C6.05798828 12.46419922 6.05347656 13.36589844 6.04882812 14.29492188 C6.03700225 16.53001314 6.0205222 18.76497437 6 21 C5.34 21.33 4.68 21.66 4 22 C4 21.34 4 20.68 4 20 C3.34 20 2.68 20 2 20 C2 20.66 2 21.32 2 22 C1.34 22 0.68 22 0 22 C0 14.74 0 7.48 0 0 Z " fill="#F1F1F1" transform="translate(219,167)"/>
<path d="M0 0 C-0.99 0.33 -1.98 0.66 -3 1 C-3 1.66 -3 2.32 -3 3 C-3.94875 3.268125 -4.8975 3.53625 -5.875 3.8125 C-7.2503627 4.20707127 -8.62531238 4.60308315 -10 5 C-10.8765625 5.25265625 -11.753125 5.5053125 -12.65625 5.765625 C-13.5534375 6.02859375 -14.450625 6.2915625 -15.375 6.5625 C-16.22835937 6.81128906 -17.08171875 7.06007813 -17.9609375 7.31640625 C-19.9700275 7.82147027 -19.9700275 7.82147027 -21 9 C-25.52642225 9.15088074 -29.58300512 9.10424872 -34 8 C-33.67 7.01 -33.34 6.02 -33 5 C-28.6266647 4.15776784 -24.25109034 3.32778805 -19.875 2.5 C-18.01875 2.14228516 -18.01875 2.14228516 -16.125 1.77734375 C-14.92617187 1.55175781 -13.72734375 1.32617188 -12.4921875 1.09375 C-11.39245605 0.88427734 -10.29272461 0.67480469 -9.15966797 0.45898438 C-6.05640259 0.00819324 -3.13068626 -0.08249503 0 0 Z " fill="#E5BD00" transform="translate(247,292)"/>
<path d="M0 0 C0.66 0.33 1.32 0.66 2 1 C2 1.99 2 2.98 2 4 C0.1875 5.75 0.1875 5.75 -2 7 C-4 6.33333333 -6 5.66666667 -8 5 C-8 5.66 -8 6.32 -8 7 C-7.34 7.33 -6.68 7.66 -6 8 C-6.639375 8.268125 -7.27875 8.53625 -7.9375 8.8125 C-10.33131686 9.88667752 -10.33131686 9.88667752 -11 13 C-12.41433206 13.2236337 -13.83167618 13.42826476 -15.25 13.625 C-16.03890625 13.74101562 -16.8278125 13.85703125 -17.640625 13.9765625 C-20.32152459 14.00319395 -21.72694089 13.36592084 -24 12 C-23.401875 11.7525 -22.80375 11.505 -22.1875 11.25 C-19.89334758 10.15956847 -19.89334758 10.15956847 -18.73046875 8.0546875 C-16.45822657 5.35672049 -14.48194566 4.87120083 -11.125 3.875 C-6.62469291 2.51139801 -6.62469291 2.51139801 -2.2421875 0.8203125 C-1.13230469 0.41425781 -1.13230469 0.41425781 0 0 Z " fill="#CCA800" transform="translate(130,316)"/>
<path d="M0 0 C0 0.99 0 1.98 0 3 C-13 6 -26 9 -39 12 C-39 9 -39 9 -38 7 C-37.47664062 7.20238281 -36.95328125 7.40476562 -36.4140625 7.61328125 C-33.02809861 8.15569294 -30.62439269 7.22539857 -27.375 6.1875 C-26.22773438 5.83042969 -25.08046875 5.47335937 -23.8984375 5.10546875 C-20.92512966 4.19759496 -20.92512966 4.19759496 -19 2 C-18.01 2 -17.02 2 -16 2 C-16 2.66 -16 3.32 -16 4 C-14.948125 3.54625 -13.89625 3.0925 -12.8125 2.625 C-12.173125 2.35429687 -11.53375 2.08359375 -10.875 1.8046875 C-9.34225384 1.14688394 -7.82485437 0.45342064 -6.3125 -0.25 C-3.73216328 -1.08686596 -2.51013486 -0.92967958 0 0 Z " fill="#806900" transform="translate(206,320)"/>
<path d="M0 0 C3.60210677 0.42033447 6.53613157 0.55791053 10.0625 -0.5 C10.0625 0.16 10.0625 0.82 10.0625 1.5 C9.4025 1.5 8.7425 1.5 8.0625 1.5 C8.0625 4.47 8.0625 7.44 8.0625 10.5 C7.0725 10.995 7.0725 10.995 6.0625 11.5 C5.4025 10.18 4.7425 8.86 4.0625 7.5 C3.4025 8.82 2.7425 10.14 2.0625 11.5 C2.0625 8.86 2.0625 6.22 2.0625 3.5 C1.0725 3.995 1.0725 3.995 0.0625 4.5 C-2.2704866 4.54022391 -4.60456666 4.54320247 -6.9375 4.5 C-7.5975 3.18 -8.2575 1.86 -8.9375 0.5 C-5.73715752 -0.5051884 -3.30878846 -0.44864928 0 0 Z M5.0625 11.5 C5.0625 14.5 5.0625 14.5 5.0625 14.5 Z " fill="#F8F8F8" transform="translate(235.9375,166.5)"/>
<path d="M0 0 C0.99 0.33 1.98 0.66 3 1 C1.25 7.75 1.25 7.75 -1 10 C-0.79375 10.721875 -0.5875 11.44375 -0.375 12.1875 C0.19091775 16.43188315 -1.7091461 18.45958943 -4 22 C-4.99 21.67 -5.98 21.34 -7 21 C-6.89171875 19.87851563 -6.89171875 19.87851563 -6.78125 18.734375 C-6.64203125 17.25710937 -6.64203125 17.25710937 -6.5 15.75 C-6.36078125 14.28820312 -6.36078125 14.28820312 -6.21875 12.796875 C-6.04199832 10.53697847 -6 8.26679807 -6 6 C-4.68 6 -3.36 6 -2 6 C-1.34 4.02 -0.68 2.04 0 0 Z M-3 11 C-2.67 11.66 -2.34 12.32 -2 13 C-1.67 12.34 -1.34 11.68 -1 11 C-1.66 11 -2.32 11 -3 11 Z " fill="#EDEDED" transform="translate(160,201)"/>
<path d="M0 0 C0.5775 0.2475 1.155 0.495 1.75 0.75 C1.42 2.07 1.09 3.39 0.75 4.75 C1.53375 4.894375 2.3175 5.03875 3.125 5.1875 C5.75 5.75 5.75 5.75 7.75 6.75 C7.42 7.41 7.09 8.07 6.75 8.75 C5.4196875 8.6571875 5.4196875 8.6571875 4.0625 8.5625 C0.29741101 8.77561824 -1.11359482 9.76106013 -4.25 11.75 C-6.56691454 12.47166191 -8.89848923 13.15059529 -11.25 13.75 C-11.58 12.76 -11.91 11.77 -12.25 10.75 C-11.26 10.42 -10.27 10.09 -9.25 9.75 C-7.52056525 8.43732044 -7.52056525 8.43732044 -6.25 6.75 C-6.25 5.76 -6.25 4.77 -6.25 3.75 C-3.06818182 -0.34090909 -3.06818182 -0.34090909 0 0 Z " fill="#E0B800" transform="translate(384.25,290.25)"/>
<path d="M0 0 C2.7654203 0.1929363 4.32795051 0.78924845 6.6875 2.1875 C6.10642368 5.9477985 5.03550504 8.71785032 3.125 12 C2.66996094 12.79019531 2.21492188 13.58039063 1.74609375 14.39453125 C1.22208984 15.28205078 1.22208984 15.28205078 0.6875 16.1875 C-0.3025 15.8575 -1.2925 15.5275 -2.3125 15.1875 C-2.38312944 12.15043391 -2.37783688 9.46844859 -1.6875 6.5 C-0.99972576 3.91919859 -0.99972576 3.91919859 -3.3125 1.1875 C-2.3125 0.1875 -2.3125 0.1875 0 0 Z " fill="#EEEEEE" transform="translate(281.3125,179.8125)"/>
<path d="M0 0 C4.29 0 8.58 0 13 0 C12.34 0.66 11.68 1.32 11 2 C11.495 2.99 11.495 2.99 12 4 C9.03 4.66 6.06 5.32 3 6 C2.67 5.34 2.34 4.68 2 4 C0.80117187 4.19916016 0.80117187 4.19916016 -0.421875 4.40234375 C-7.93814598 5.61094601 -15.40541494 6.48001039 -23 7 C-22.34 6.67 -21.68 6.34 -21 6 C-21 5.34 -21 4.68 -21 4 C-14.00982196 3.18447923 -7.01524148 2.55789568 0 2 C0 1.34 0 0.68 0 0 Z " fill="#856E00" transform="translate(242,289)"/>
<path d="M0 0 C1.65 0 3.3 0 5 0 C5 0.66 5 1.32 5 2 C5.66 2.33 6.32 2.66 7 3 C7 3.66 7 4.32 7 5 C7.66 5.33 8.32 5.66 9 6 C5.37 6.66 1.74 7.32 -2 8 C-2 8.33 -2 8.66 -2 9 C-8.28260706 9.23268915 -13.88019467 8.40454548 -20 7 C-20 6.67 -20 6.34 -20 6 C-15.74949992 4.86653331 -11.75686313 4.99241667 -7.40234375 5.16015625 C-4.73211723 4.98214115 -3.2135101 4.49374958 -1 3 C-0.67 2.01 -0.34 1.02 0 0 Z " fill="#362C00" transform="translate(326,293)"/>
<path d="M0 0 C3.625 0.375 3.625 0.375 7 1 C7 3.64 7 6.28 7 9 C4.35261084 10.4606285 3.10551666 11 0 11 C-1.75 9.3125 -1.75 9.3125 -3 7 C-2.75925978 3.62963689 -2.41201979 2.41201979 0 0 Z " fill="#060500" transform="translate(392,279)"/>
<path d="M0 0 C0.33 0.66 0.66 1.32 1 2 C-1.70879335 3.35439668 -4.00933268 3.06501451 -7 3 C-7 2.67 -7 2.34 -7 2 C-9.91634129 1.7497843 -9.91634129 1.7497843 -13 2 C-13.99 3.485 -13.99 3.485 -15 5 C-17.49609375 5.73046875 -17.49609375 5.73046875 -20.4375 6.1875 C-21.40558594 6.34605469 -22.37367188 6.50460937 -23.37109375 6.66796875 C-26 7 -26 7 -29 7 C-28.67 6.01 -28.34 5.02 -28 4 C-21.17132404 1.17434098 -6.51475546 -4.84268748 0 0 Z " fill="#9E8200" transform="translate(287,304)"/>
<path d="M0 0 C2.97 0.495 2.97 0.495 6 1 C6 1.33 6 1.66 6 2 C5.195625 2.12375 4.39125 2.2475 3.5625 2.375 C2.716875 2.58125 1.87125 2.7875 1 3 C0.67 3.66 0.34 4.32 0 5 C2.97 5.33 5.94 5.66 9 6 C5.55979715 7.72010143 4.26076351 8.24612693 0.6875 8.5 C-3.39503997 8.86930871 -7.06296844 9.84204954 -11 11 C-12.32 11 -13.64 11 -15 11 C-14.67 10.01 -14.34 9.02 -14 8 C-13.28972656 7.86722656 -12.57945312 7.73445313 -11.84765625 7.59765625 C-10.92855469 7.42105469 -10.00945312 7.24445313 -9.0625 7.0625 C-7.68771484 6.80146484 -7.68771484 6.80146484 -6.28515625 6.53515625 C-4.04710156 6.22285012 -4.04710156 6.22285012 -3 5 C-3.99 4.34 -4.98 3.68 -6 3 C-4.02 2.67 -2.04 2.34 0 2 C0 1.34 0 0.68 0 0 Z " fill="#6A5700" transform="translate(213,295)"/>
<path d="M0 0 C1.32 0.66 2.64 1.32 4 2 C-1.5482321 6.85470309 -9.76621877 9.18416001 -17 10 C-19.265625 9.546875 -19.265625 9.546875 -21 9 C-20.195625 8.71125 -19.39125 8.4225 -18.5625 8.125 C-15.8673532 7.26737432 -15.8673532 7.26737432 -15 5 C-13.68 5.33 -12.36 5.66 -11 6 C-11 5.34 -11 4.68 -11 4 C-10.2575 3.855625 -9.515 3.71125 -8.75 3.5625 C-4.24409914 2.67091336 -4.24409914 2.67091336 0 1 C0 0.67 0 0.34 0 0 Z " fill="#D9B300" transform="translate(357,295)"/>
<path d="M0 0 C-1.98 0.66 -3.96 1.32 -6 2 C-3.3333581 3.33332095 -1.83319697 2.67102033 1 2 C0 4 0 4 -2.1796875 4.88671875 C-3.06914062 5.15097656 -3.95859375 5.41523438 -4.875 5.6875 C-5.75929687 5.95949219 -6.64359375 6.23148437 -7.5546875 6.51171875 C-10 7 -10 7 -13 6 C-14.44197868 4.55802132 -15.11786244 2.82308429 -16 1 C-14.03536811 0.50051732 -12.0701977 0.00299466 -10.1015625 -0.48046875 C-8.45920254 -0.88647967 -6.82217737 -1.31408603 -5.1875 -1.75 C-3 -2 -3 -2 0 0 Z " fill="#9E8200" transform="translate(193,303)"/>
<path d="M0 0 C0.33 0.99 0.66 1.98 1 3 C-14.35714286 9.14285714 -14.35714286 9.14285714 -21 7 C-18.68143083 5.45428722 -16.49361571 4.20381448 -14 3 C-14 2.34 -14 1.68 -14 1 C-13.13375 1.20625 -12.2675 1.4125 -11.375 1.625 C-7.04564341 2.10603962 -4.125034 0 0 0 Z " fill="#433700" transform="translate(136,320)"/>
<path d="M0 0 C0.33 0 0.66 0 1 0 C1.12910853 6.74233419 0.797837 13.30386804 0 20 C-0.33 20 -0.66 20 -1 20 C-1.19406478 18.35492782 -1.38007935 16.70890406 -1.5625 15.0625 C-1.66691406 14.14597656 -1.77132812 13.22945312 -1.87890625 12.28515625 C-1.91886719 11.53105469 -1.95882812 10.77695313 -2 10 C-1.67 9.67 -1.34 9.34 -1 9 C-0.76807135 7.48530552 -0.58784762 5.96245438 -0.4375 4.4375 C-0.35371094 3.61121094 -0.26992187 2.78492188 -0.18359375 1.93359375 C-0.12300781 1.29550781 -0.06242188 0.65742188 0 0 Z M-4 6 C-3.34 6.33 -2.68 6.66 -2 7 C-2.33 8.65 -2.66 10.3 -3 12 C-2.67 12 -2.34 12 -2 12 C-2 13.98 -2 15.96 -2 18 C-2.99 18.495 -2.99 18.495 -4 19 C-4.33 18.34 -4.66 17.68 -5 17 C-5.99 17.495 -5.99 17.495 -7 18 C-7 14.7 -7 11.4 -7 8 C-6.34 8 -5.68 8 -5 8 C-4.67 7.34 -4.34 6.68 -4 6 Z " fill="#9B9B9B" transform="translate(244,168)"/>
<path d="M0 0 C0.99 0 1.98 0 3 0 C3 4.62 3 9.24 3 14 C1.68 14.33 0.36 14.66 -1 15 C-1.33 16.32 -1.66 17.64 -2 19 C-2.05451714 16.95863605 -2.09302485 14.91684144 -2.125 12.875 C-2.14820313 11.73804688 -2.17140625 10.60109375 -2.1953125 9.4296875 C-1.99672109 5.94242233 -1.2524801 3.2446138 0 0 Z " fill="#D2D2D2" transform="translate(190,183)"/>
<path d="M0 0 C0.33 0 0.66 0 1 0 C1 3.96 1 7.92 1 12 C-3.455 13.485 -3.455 13.485 -8 15 C-6.85657478 12.68628057 -5.71038936 10.37400323 -4.5625 8.0625 C-4.23701172 7.40314453 -3.91152344 6.74378906 -3.57617188 6.06445312 C-1.11328125 1.11328125 -1.11328125 1.11328125 0 0 Z " fill="#0D0D0D" transform="translate(299,162)"/>
<path d="M0 0 C0.33 0 0.66 0 1 0 C1 3.96 1 7.92 1 12 C-3.455 13.485 -3.455 13.485 -8 15 C-6.85657478 12.68628057 -5.71038936 10.37400323 -4.5625 8.0625 C-4.23701172 7.40314453 -3.91152344 6.74378906 -3.57617188 6.06445312 C-1.11328125 1.11328125 -1.11328125 1.11328125 0 0 Z " fill="#0B0B0B" transform="translate(173,189)"/>
<path d="M0 0 C0.33 0 0.66 0 1 0 C1.12867289 8.06350113 0.79681084 15.97497656 0 24 C-0.928125 23.4740625 -0.928125 23.4740625 -1.875 22.9375 C-2.57625 22.628125 -3.2775 22.31875 -4 22 C-4.66 22.33 -5.32 22.66 -6 23 C-5.67 21.02 -5.34 19.04 -5 17 C-3.68 16.67 -2.36 16.34 -1 16 C-1.09539062 15.26394531 -1.19078125 14.52789062 -1.2890625 13.76953125 C-1.39992187 12.79371094 -1.51078125 11.81789062 -1.625 10.8125 C-1.74101562 9.84957031 -1.85703125 8.88664063 -1.9765625 7.89453125 C-2.00194942 4.75924677 -1.34359283 2.80513465 0 0 Z " fill="#FAFAFA" transform="translate(194,181)"/>
<path d="M0 0 C0.33 0 0.66 0 1 0 C1 4.62 1 9.24 1 14 C-0.32 14.33 -1.64 14.66 -3 15 C-4 14 -4 14 -4.09765625 11.05859375 C-4.08605469 9.86363281 -4.07445312 8.66867188 -4.0625 7.4375 C-4.05347656 6.23996094 -4.04445313 5.04242188 -4.03515625 3.80859375 C-4.02355469 2.88175781 -4.01195312 1.95492187 -4 1 C-3.67 1.99 -3.34 2.98 -3 4 C-2.34 3.67 -1.68 3.34 -1 3 C-0.67 2.01 -0.34 1.02 0 0 Z " fill="#F5F5F5" transform="translate(266,184)"/>
<path d="M0 0 C0.33 0.66 0.66 1.32 1 2 C1.66 2 2.32 2 3 2 C3.33 1.34 3.66 0.68 4 0 C4 0.99 4 1.98 4 3 C3.01 3 2.02 3 1 3 C1 3.66 1 4.32 1 5 C1.99 5.33 2.98 5.66 4 6 C6.45707063 10.26754372 6.16198604 14.2214118 6 19 C5.67 19 5.34 19 5 19 C4.67 17.35 4.34 15.7 4 14 C3.01 14.33 2.02 14.66 1 15 C-0.26579913 12.46840175 -0.36556268 10.31674807 -0.625 7.5 C-0.72039062 6.5203125 -0.81578125 5.540625 -0.9140625 4.53125 C-1 2 -1 2 0 0 Z " fill="#C6C6C6" transform="translate(300,159)"/>
<path d="M0 0 C0.80824219 0.10183594 1.61648437 0.20367187 2.44921875 0.30859375 C3.06410156 0.39238281 3.67898437 0.47617187 4.3125 0.5625 C4.6425 1.5525 4.9725 2.5425 5.3125 3.5625 C-2.11607143 5.99107143 -2.11607143 5.99107143 -5.6875 4.5625 C-6.595 4.211875 -7.5025 3.86125 -8.4375 3.5 C-9.18 3.190625 -9.9225 2.88125 -10.6875 2.5625 C-6.76357827 -0.05344782 -4.5634425 -0.59523163 0 0 Z " fill="#C8A500" transform="translate(172.6875,304.4375)"/>
<path d="M0 0 C1.04976964 3.14930893 1.10131595 5.38814456 1.0625 8.6875 C1.05347656 9.68136719 1.04445312 10.67523438 1.03515625 11.69921875 C1.02355469 12.45847656 1.01195312 13.21773437 1 14 C0.01 14.33 -0.98 14.66 -2 15 C-2.66 14.67 -3.32 14.34 -4 14 C-4.1953125 7.9453125 -4.1953125 7.9453125 -4 6 C-3.34 5.34 -2.68 4.68 -2 4 C-2 3.01 -2 2.02 -2 1 C-1.34 0.67 -0.68 0.34 0 0 Z " fill="#DFDFDF" transform="translate(222,194)"/>
<path d="M0 0 C0 2.97 0 5.94 0 9 C-0.66 8.01 -1.32 7.02 -2 6 C-2 7.98 -2 9.96 -2 12 C-3.65 11.67 -5.3 11.34 -7 11 C-7.625 7.625 -7.625 7.625 -8 4 C-5.31752816 1.31752816 -3.87224464 0 0 0 Z " fill="#B8B8B8" transform="translate(181,184)"/>
<path d="M0 0 C0.33 0 0.66 0 1 0 C1 6.27 1 12.54 1 19 C0.67 19 0.34 19 0 19 C-0.33 17.02 -0.66 15.04 -1 13 C-1.99 13 -2.98 13 -4 13 C-4.625 10.1875 -4.625 10.1875 -5 7 C-4.34 6.01 -3.68 5.02 -3 4 C-2.01 5.485 -2.01 5.485 -1 7 C-0.67 4.69 -0.34 2.38 0 0 Z " fill="#CFCFCF" transform="translate(179,188)"/>
<path d="M0 0 C0.33 0 0.66 0 1 0 C1.33745354 2.39531756 1.6700829 4.79114268 2 7.1875 C2.09539062 7.86103516 2.19078125 8.53457031 2.2890625 9.22851562 C2.78324613 12.84664577 3.11346131 16.34796401 3 20 C2.34 19.67 1.68 19.34 1 19 C1 18.01 1 17.02 1 16 C0.34 16.99 -0.32 17.98 -1 19 C-2.75747614 14.49646738 -3.19294408 10.82360189 -3 6 C-2.01 7.485 -2.01 7.485 -1 9 C-0.67 6.03 -0.34 3.06 0 0 Z " fill="#B99900" transform="translate(268,243)"/>
<path d="M0 0 C1.485 0.99 1.485 0.99 3 2 C4.2236068 2.0745356 4.2236068 2.0745356 6 1 C5.814375 1.94875 5.62875 2.8975 5.4375 3.875 C4.71313368 6.89868793 4.71313368 6.89868793 6 9 C2.375 12 2.375 12 -1 12 C-0.67 8.04 -0.34 4.08 0 0 Z " fill="#7C6600" transform="translate(157,240)"/>
<path d="M0 0 C0.33 3.3 0.66 6.6 1 10 C0.67 9.34 0.34 8.68 0 8 C-1.97536745 8.34786708 -1.97536745 8.34786708 -4 9 C-4.33 9.66 -4.66 10.32 -5 11 C-5.66 11 -6.32 11 -7 11 C-6.51098901 4.64285714 -6.51098901 4.64285714 -4.0625 1.5625 C-2 0 -2 0 0 0 Z " fill="#E2BA00" transform="translate(163,249)"/>
<path d="M0 0 C-2.67312924 2.19578473 -4.67118118 3.19649201 -8 4 C-8.33 4.66 -8.66 5.32 -9 6 C-11.97 5.67 -14.94 5.34 -18 5 C-17.67 4.01 -17.34 3.02 -17 2 C-5.47835991 -0.29612756 -5.47835991 -0.29612756 0 0 Z " fill="#EBC100" transform="translate(231,295)"/>
<path d="M0 0 C-7.93711014 2.73981931 -15.73781407 5.40554307 -24 7 C-24 6.34 -24 5.68 -24 5 C-24.99 4.67 -25.98 4.34 -27 4 C-25.53240234 3.70996094 -25.53240234 3.70996094 -24.03515625 3.4140625 C-22.71092417 3.15110881 -21.38670636 2.8880832 -20.0625 2.625 C-19.37897461 2.4899707 -18.69544922 2.35494141 -17.99121094 2.21582031 C-14.22360958 1.46586278 -10.48425971 0.65414912 -6.75 -0.25 C-3 -1 -3 -1 0 0 Z " fill="#0D0A00" transform="translate(217,303)"/>
<path d="M0 0 C-5.94 1.65 -11.88 3.3 -18 5 C-18.66 4.34 -19.32 3.68 -20 3 C-19.34 2.01 -18.68 1.02 -18 0 C-17.45472656 0.19722656 -16.90945312 0.39445312 -16.34765625 0.59765625 C-12.48625145 1.25942779 -9.21497606 -0.30826427 -5.55859375 -1.50390625 C-3 -2 -3 -2 0 0 Z " fill="#B49400" transform="translate(186,327)"/>
<path d="M0 0 C0.66 0 1.32 0 2 0 C2 0.99 2 1.98 2 3 C3.65 3.33 5.3 3.66 7 4 C5.35 5.98 3.7 7.96 2 10 C1.01 9.67 0.02 9.34 -1 9 C-1.09765625 2.84765625 -1.09765625 2.84765625 -1 1 C-0.67 0.67 -0.34 0.34 0 0 Z " fill="#917800" transform="translate(277,229)"/>
<path d="M0 0 C-3.7187979 3.89588352 -6.65434941 5.28724659 -12 6 C-11.67 5.34 -11.34 4.68 -11 4 C-11.66 3.34 -12.32 2.68 -13 2 C-11.5882217 1.46605821 -10.17029756 0.94834896 -8.75 0.4375 C-7.96109375 0.14746094 -7.1721875 -0.14257812 -6.359375 -0.44140625 C-3.80896548 -1.04522837 -2.44677771 -0.8473932 0 0 Z " fill="#AD8F00" transform="translate(164,312)"/>
<path d="M0 0 C1.65 0 3.3 0 5 0 C5 0.66 5 1.32 5 2 C5.66 2.33 6.32 2.66 7 3 C7 3.66 7 4.32 7 5 C7.66 5.33 8.32 5.66 9 6 C4.545 6.495 4.545 6.495 0 7 C0 6.67 0 6.34 0 6 C-1.65 5.67 -3.3 5.34 -5 5 C-4.360625 4.731875 -3.72125 4.46375 -3.0625 4.1875 C-0.66868314 3.11332248 -0.66868314 3.11332248 0 0 Z " fill="#6D5900" transform="translate(326,293)"/>
<path d="M0 0 C2.31 0 4.62 0 7 0 C8.33257403 10.55808656 8.33257403 10.55808656 7 15 C6.67 15 6.34 15 6 15 C5.39519442 11.5979686 5 8.45631234 5 5 C4.01 4.67 3.02 4.34 2 4 C0.8125 1.9375 0.8125 1.9375 0 0 Z " fill="#4B3E00" transform="translate(157,239)"/>
<path d="M0 0 C0.79921875 0.00902344 1.5984375 0.01804687 2.421875 0.02734375 C3.02515625 0.03894531 3.6284375 0.05054688 4.25 0.0625 C3.92 0.7225 3.59 1.3825 3.25 2.0625 C2.26 2.0625 1.27 2.0625 0.25 2.0625 C0.25 2.7225 0.25 3.3825 0.25 4.0625 C2.56 4.0625 4.87 4.0625 7.25 4.0625 C7.25 4.3925 7.25 4.7225 7.25 5.0625 C-1.32142857 5.20535714 -1.32142857 5.20535714 -4.75 4.0625 C-4.75 3.4025 -4.75 2.7425 -4.75 2.0625 C-5.74 2.3925 -6.73 2.7225 -7.75 3.0625 C-8.08 2.4025 -8.41 1.7425 -8.75 1.0625 C-5.75519083 0.1901588 -3.11424089 -0.04579766 0 0 Z " fill="#C19F00" transform="translate(320.75,293.9375)"/>
<path d="M0 0 C9.41002278 0.96355353 9.41002278 0.96355353 14 2 C11.06552643 4.93447357 7.81740544 4.46158423 3.875 4.625 C3.12089844 4.66367187 2.36679687 4.70234375 1.58984375 4.7421875 C-0.27303184 4.83651031 -2.13648255 4.91934662 -4 5 C-2.68 4.34 -1.36 3.68 0 3 C0 2.01 0 1.02 0 0 Z " fill="#AF9000" transform="translate(302,299)"/>
<path d="M0 0 C-2 3 -2 3 -4.875 3.75 C-7.74190445 3.97935236 -9.30906898 3.78123804 -12 3 C-13.66623639 2.96213099 -15.33397597 2.95372155 -17 3 C-11.97945901 -0.34702732 -5.88559684 -1.89857963 0 0 Z " fill="#AB8C00" transform="translate(211,299)"/>
<path d="M0 0 C0.33 0 0.66 0 1 0 C1.48979592 7.34693878 1.48979592 7.34693878 -0.875 10.5 C-3 12 -3 12 -5 12 C-4.67 8.7 -4.34 5.4 -4 2 C-3.01 3.32 -2.02 4.64 -1 6 C-0.67 4.02 -0.34 2.04 0 0 Z " fill="#EFEFEF" transform="translate(242,180)"/>
<path d="M0 0 C-0.99 0.495 -0.99 0.495 -2 1 C-2 1.66 -2 2.32 -2 3 C-3.175625 2.835 -4.35125 2.67 -5.5625 2.5 C-9.41273873 2.01271488 -13.12258073 1.91922043 -17 2 C-17 1.67 -17 1.34 -17 1 C-15.10972377 0.4392482 -13.2124289 -0.09787859 -11.3125 -0.625 C-10.25675781 -0.92664063 -9.20101562 -1.22828125 -8.11328125 -1.5390625 C-4.66182322 -2.05006883 -3.0586325 -1.57755071 0 0 Z " fill="#705C00" transform="translate(154,316)"/>
<path d="M0 0 C0 1.32 0 2.64 0 4 C-2.31 4 -4.62 4 -7 4 C-7.66 2.68 -8.32 1.36 -9 0 C-5.67465243 -1.10844919 -3.37817425 -0.84454356 0 0 Z " fill="#EFEFEF" transform="translate(236,167)"/>
<path d="M0 0 C0.33 0.99 0.66 1.98 1 3 C-2.3 3.66 -5.6 4.32 -9 5 C-9.33 4.01 -9.66 3.02 -10 2 C-3.375 0 -3.375 0 0 0 Z " fill="#725E00" transform="translate(178,308)"/>
<path d="M0 0 C-1.72681437 0.50806447 -3.45657979 1.00610467 -5.1875 1.5 C-6.63189453 1.91765625 -6.63189453 1.91765625 -8.10546875 2.34375 C-10.85345876 2.96677608 -13.19598416 3.12302812 -16 3 C-16 2.34 -16 1.68 -16 1 C-14.03536811 0.50051732 -12.0701977 0.00299466 -10.1015625 -0.48046875 C-8.45920254 -0.88647967 -6.82217737 -1.31408603 -5.1875 -1.75 C-3 -2 -3 -2 0 0 Z " fill="#645200" transform="translate(193,303)"/>
<path d="M0 0 C0.33 0.66 0.66 1.32 1 2 C0.34 2 -0.32 2 -1 2 C-1 2.66 -1 3.32 -1 4 C-4.63 4.33 -8.26 4.66 -12 5 C-11.67 4.01 -11.34 3.02 -11 2 C-5.555 1.01 -5.555 1.01 0 0 Z " fill="#776200" transform="translate(270,306)"/>
<path d="M0 0 C0 0.66 0 1.32 0 2 C-0.99 2 -1.98 2 -3 2 C-3 2.66 -3 3.32 -3 4 C-6.63 4.33 -10.26 4.66 -14 5 C-9.24476564 0.78822099 -6.26639619 0 0 0 Z " fill="#A48700" transform="translate(254,309)"/>
<path d="M0 0 C2.475 0.495 2.475 0.495 5 1 C4.67 1.66 4.34 2.32 4 3 C6.31 3.66 8.62 4.32 11 5 C8 7 8 7 5.5 6.75 C3 6 3 6 0 4 C0 2.68 0 1.36 0 0 Z " fill="#D1AC00" transform="translate(118,297)"/>
<path d="M0 0 C0.66 0.99 1.32 1.98 2 3 C-1.3 3.33 -4.6 3.66 -8 4 C-8 3.01 -8 2.02 -8 1 C-5.21136993 -0.39431504 -3.07921132 -0.25660094 0 0 Z " fill="#FACE00" transform="translate(238,289)"/>
<path d="M0 0 C4.95 0.99 4.95 0.99 10 2 C6.55549263 4.29633824 4.06187717 4.54016485 0 5 C0 3.35 0 1.7 0 0 Z " fill="#181400" transform="translate(406,280)"/>
<path d="M0 0 C2.97 0.495 2.97 0.495 6 1 C5.67 1.66 5.34 2.32 5 3 C6.98 3.66 8.96 4.32 11 5 C10.01 5.66 9.02 6.32 8 7 C4.8125 6.125 4.8125 6.125 2 5 C2 4.34 2 3.68 2 3 C1.34 2.67 0.68 2.34 0 2 C0 1.34 0 0.68 0 0 Z " fill="#C8A400" transform="translate(223,275)"/>
<path d="M0 0 C0.33 0.66 0.66 1.32 1 2 C-3.99367864 2.7282448 -8.99109914 3.38487182 -14 4 C-14 3.34 -14 2.68 -14 2 C-9.126739 0.4087311 -5.19209404 -0.21192221 0 0 Z " fill="#E4BC00" transform="translate(186,301)"/>
<path d="M0 0 C0.99 0 1.98 0 3 0 C3 0.66 3 1.32 3 2 C3.66 2 4.32 2 5 2 C4.67 3.65 4.34 5.3 4 7 C1.36 7 -1.28 7 -4 7 C-4.33 6.34 -4.66 5.68 -5 5 C-2 4 -2 4 1 5 C0.67 3.35 0.34 1.7 0 0 Z " fill="#645300" transform="translate(126,294)"/>
<path d="M0 0 C-0.66 1.65 -1.32 3.3 -2 5 C-6.55384615 5.36923077 -6.55384615 5.36923077 -8.8125 3.5 C-9.204375 3.005 -9.59625 2.51 -10 2 C-8.7090864 1.66376204 -7.41723903 1.33110751 -6.125 1 C-5.40570313 0.814375 -4.68640625 0.62875 -3.9453125 0.4375 C-2 0 -2 0 0 0 Z " fill="#C3C3C3" transform="translate(243,163)"/>
<path d="M0 0 C1.23556641 0.01740234 1.23556641 0.01740234 2.49609375 0.03515625 C3.32238281 0.04417969 4.14867187 0.05320312 5 0.0625 C5.63808594 0.07410156 6.27617187 0.08570313 6.93359375 0.09765625 C4.59700212 2.43424788 3.10697721 3.18090103 -0.06640625 4.09765625 C-3.87890625 3.72265625 -3.87890625 3.72265625 -7.06640625 3.09765625 C-6.42703125 2.78828125 -5.78765625 2.47890625 -5.12890625 2.16015625 C-1.03016727 0.04868465 -1.03016727 0.04868465 0 0 Z " fill="#796400" transform="translate(226.06640625,296.90234375)"/>
<path d="M0 0 C0.33 0.66 0.66 1.32 1 2 C-3.95 2.33 -8.9 2.66 -14 3 C-4.23529412 -1.88235294 -4.23529412 -1.88235294 0 0 Z " fill="#382F00" transform="translate(308,290)"/>
<path d="M0 0 C0.99 0 1.98 0 3 0 C3 3.96 3 7.92 3 12 C-0.52844977 8.47155023 -0.64728672 6.84980754 -1 2 C-0.67 1.34 -0.34 0.68 0 0 Z " fill="#8B8B8B" transform="translate(190,183)"/>
<path d="M0 0 C0.33 0.99 0.66 1.98 1 3 C-1.57213134 4.61949011 -2.67669159 5.04408751 -5.75 4.625 C-6.4925 4.41875 -7.235 4.2125 -8 4 C-8 3.34 -8 2.68 -8 2 C-2.25 0 -2.25 0 0 0 Z " fill="#7B6500" transform="translate(136,320)"/>
<path d="M0 0 C-3.51787406 1.97000947 -7.06360577 3.14115035 -11 4 C-11.99 3.34 -12.98 2.68 -14 2 C-4.58997722 -1.62870159 -4.58997722 -1.62870159 0 0 Z " fill="#D9B300" transform="translate(151,312)"/>
<path d="M0 0 C0.33 0.99 0.66 1.98 1 3 C-2.57380342 4.19126781 -4.50883302 3.7349445 -8.1875 3.0625 C-9.27417969 2.86785156 -10.36085938 2.67320312 -11.48046875 2.47265625 C-12.31191406 2.31667969 -13.14335937 2.16070312 -14 2 C-14 1.67 -14 1.34 -14 1 C-4.58997722 -0.14806378 -4.58997722 -0.14806378 0 0 Z " fill="#BF9D00" transform="translate(334,299)"/>
<path d="M0 0 C-0.33 0.99 -0.66 1.98 -1 3 C-4.3 3.33 -7.6 3.66 -11 4 C-10.34 3.67 -9.68 3.34 -9 3 C-9 2.34 -9 1.68 -9 1 C-5.92677456 0.08941469 -3.19902639 -0.08886184 0 0 Z " fill="#473A00" transform="translate(230,292)"/>
<path d="M0 0 C2.8290723 2.8290723 3.37611108 3.38144425 4 7 C3.34 7 2.68 7 2 7 C2 7.99 2 8.98 2 10 C1.01 9.67 0.02 9.34 -1 9 C-0.67 6.03 -0.34 3.06 0 0 Z " fill="#C6A300" transform="translate(261,219)"/>
<path d="M0 0 C0.99 0.33 1.98 0.66 3 1 C2.1875 4.4375 2.1875 4.4375 1 8 C0.01 8.33 -0.98 8.66 -2 9 C-1.125 2.25 -1.125 2.25 0 0 Z " fill="#CBCBCB" transform="translate(286,174)"/>
<path d="M0 0 C0 0.66 0 1.32 0 2 C0.99 2.33 1.98 2.66 3 3 C3 3.33 3 3.66 3 4 C-0.375 4.625 -0.375 4.625 -4 5 C-4.66 4.34 -5.32 3.68 -6 3 C-3.375 0 -3.375 0 0 0 Z " fill="#977C00" transform="translate(190,322)"/>
<path d="M0 0 C1.8125 1.25 1.8125 1.25 2.8125 3.25 C0.10370665 4.60439668 -2.19683268 4.31501451 -5.1875 4.25 C-5.5175 3.26 -5.8475 2.27 -6.1875 1.25 C-2.76721014 -0.94875776 -2.76721014 -0.94875776 0 0 Z " fill="#B49400" transform="translate(285.1875,302.75)"/>
<path d="M0 0 C0.66 0.33 1.32 0.66 2 1 C2 2.65 2 4.3 2 6 C1.67 5.34 1.34 4.68 1 4 C-0.97536745 4.34786708 -0.97536745 4.34786708 -3 5 C-3.33 5.66 -3.66 6.32 -4 7 C-4.66 7 -5.32 7 -6 7 C-5.67 5.68 -5.34 4.36 -5 3 C-3.35 2.67 -1.7 2.34 0 2 C0 1.34 0 0.68 0 0 Z " fill="#B79700" transform="translate(162,253)"/>
<path d="M0 0 C0.33 0 0.66 0 1 0 C1 3.96 1 7.92 1 12 C0.01 12 -0.98 12 -2 12 C-2.17835515 7.45194365 -1.99785435 4.1205746 0 0 Z " fill="#D3AE00" transform="translate(166,242)"/>
<path d="M0 0 C0.33 0 0.66 0 1 0 C1.125 7.625 1.125 7.625 0 11 C-0.99 10.67 -1.98 10.34 -3 10 C-2.25 3.375 -2.25 3.375 0 0 Z " fill="#F9F9F9" transform="translate(210,186)"/>
<path d="M0 0 C0 2.97 0 5.94 0 9 C-0.66 8.01 -1.32 7.02 -2 6 C-2.99 6.33 -3.98 6.66 -5 7 C-4.6875 4.625 -4.6875 4.625 -4 2 C-1 0 -1 0 0 0 Z " fill="#B9B9B9" transform="translate(268,181)"/>
<path d="M0 0 C0 3.3 0 6.6 0 10 C-2 8 -2 8 -3 5 C-3.66 4.67 -4.32 4.34 -5 4 C-5 3.34 -5 2.68 -5 2 C-1.125 0 -1.125 0 0 0 Z " fill="#E2E2E2" transform="translate(306,160)"/>
<path d="M0 0 C0.33 0.66 0.66 1.32 1 2 C1.66 2 2.32 2 3 2 C3.33 1.34 3.66 0.68 4 0 C4 0.99 4 1.98 4 3 C3.01 3 2.02 3 1 3 C1 3.66 1 4.32 1 5 C1.99 5.33 2.98 5.66 4 6 C3.67 7.32 3.34 8.64 3 10 C0 8 0 8 -0.75 5 C-1 2 -1 2 0 0 Z " fill="#6A6A6A" transform="translate(300,159)"/>
<path d="M0 0 C-3.44450737 2.29633824 -5.93812283 2.54016485 -10 3 C-9.67 2.01 -9.34 1.02 -9 0 C-5.93109813 -1.53445094 -3.29905734 -0.54984289 0 0 Z " fill="#AC8D00" transform="translate(238,314)"/>
<path d="M0 0 C0.97608217 2.92824652 1.08226668 4.95613276 1 8 C0.01 8.33 -0.98 8.66 -2 9 C-2 8.34 -2 7.68 -2 7 C-2.66 6.67 -3.32 6.34 -4 6 C-3.34 5.34 -2.68 4.68 -2 4 C-2 3.01 -2 2.02 -2 1 C-1.34 0.67 -0.68 0.34 0 0 Z " fill="#F9F9F9" transform="translate(222,194)"/>
<path d="M0 0 C0.33 0 0.66 0 1 0 C1 3.96 1 7.92 1 12 C0.34 12 -0.32 12 -1 12 C-1.33 8.7 -1.66 5.4 -2 2 C-1.34 2 -0.68 2 0 2 C0 1.34 0 0.68 0 0 Z " fill="#FEFEFE" transform="translate(304,171)"/>
<path d="M0 0 C-1 2 -1 2 -4.25 3.125 C-7.37700635 3.85463482 -9.82622905 4.19234975 -13 4 C-12.67 3.34 -12.34 2.68 -12 2 C-7.70418473 0.73238238 -4.49055702 0 0 0 Z " fill="#7E6800" transform="translate(262,296)"/>
<path d="M0 0 C1.32 0.33 2.64 0.66 4 1 C4 1.66 4 2.32 4 3 C-0.455 4.485 -0.455 4.485 -5 6 C-3.35 4.02 -1.7 2.04 0 0 Z " fill="#2E2600" transform="translate(382,290)"/>
<path d="M0 0 C0.66 0 1.32 0 2 0 C2 3.63 2 7.26 2 11 C1.67 11 1.34 11 1 11 C1 9.35 1 7.7 1 6 C0.34 6 -0.32 6 -1 6 C-1.042721 4.33388095 -1.04063832 2.66617115 -1 1 C-0.67 0.67 -0.34 0.34 0 0 Z " fill="#D3AE00" transform="translate(183,238)"/>
<path d="M0 0 C0.99 0.33 1.98 0.66 3 1 C2.34 3.31 1.68 5.62 1 8 C0.01 7.67 -0.98 7.34 -2 7 C-1.125 2.25 -1.125 2.25 0 0 Z " fill="#CDCDCD" transform="translate(160,201)"/>
<path d="M0 0 C2.62386487 3.06117568 3 3.73173127 3 8 C2.01 8.33 1.02 8.66 0 9 C-1.125 3.375 -1.125 3.375 0 0 Z " fill="#DEDEDE" transform="translate(175,192)"/>
<path d="M0 0 C0.33 0 0.66 0 1 0 C1.20140476 3.62528568 0.85776765 5.86501708 -1 9 C-2.5 7.6875 -2.5 7.6875 -4 6 C-4 5.01 -4 4.02 -4 3 C-3.01 3 -2.02 3 -1 3 C-0.67 2.01 -0.34 1.02 0 0 Z " fill="#CACACA" transform="translate(208,189)"/>
<path d="M0 0 C0.66 0.99 1.32 1.98 2 3 C1.67 3.66 1.34 4.32 1 5 C1.99 5 2.98 5 4 5 C4.33 6.65 4.66 8.3 5 10 C3.35 9.67 1.7 9.34 0 9 C-1.125 2.25 -1.125 2.25 0 0 Z " fill="#6A6A6A" transform="translate(174,186)"/>
<path d="M0 0 C0 0.66 0 1.32 0 2 C-0.99 2 -1.98 2 -3 2 C-3 2.66 -3 3.32 -3 4 C-2.34 4.33 -1.68 4.66 -1 5 C-2.32 5.33 -3.64 5.66 -5 6 C-5.99 4.68 -6.98 3.36 -8 2 C-2.25 0 -2.25 0 0 0 Z " fill="#CDA900" transform="translate(125,319)"/>
<path d="M0 0 C0 0.33 0 0.66 0 1 C-2.97 1.66 -5.94 2.32 -9 3 C-9 2.34 -9 1.68 -9 1 C-9.99 0.67 -10.98 0.34 -12 0 C-7.66726186 -0.92844389 -4.33273814 -0.92844389 0 0 Z " fill="#302700" transform="translate(202,307)"/>
<path d="M0 0 C-2.35968744 2.09749995 -3.54616994 2.96905704 -6.75 3.1875 C-7.86375 3.0946875 -7.86375 3.0946875 -9 3 C-9.33 2.34 -9.66 1.68 -10 1 C-6.78548731 -0.60725635 -3.56387464 -0.05748185 0 0 Z " fill="#332A00" transform="translate(282,305)"/>
<path d="M0 0 C0 0.66 0 1.32 0 2 C-2.39763185 4.39763185 -3.33273498 4.34280586 -6.625 4.625 C-7.44226563 4.69976562 -8.25953125 4.77453125 -9.1015625 4.8515625 C-9.72804688 4.90054687 -10.35453125 4.94953125 -11 5 C-10.01 4.34 -9.02 3.68 -8 3 C-7.54625 2.46375 -7.0925 1.9275 -6.625 1.375 C-4.40070396 -0.50709665 -2.82633073 -0.22916195 0 0 Z " fill="#AE8F00" transform="translate(347,300)"/>
<path d="M0 0 C-0.33 0.99 -0.66 1.98 -1 3 C-4.3 2.34 -7.6 1.68 -11 1 C-11 0.67 -11 0.34 -11 0 C-7.01803543 -1.05404945 -4.01804691 -0.84098656 0 0 Z " fill="#725E00" transform="translate(317,299)"/>
<path d="M0 0 C1.98 0.99 1.98 0.99 4 2 C3.67 3.65 3.34 5.3 3 7 C2.01 7 1.02 7 0 7 C0 4.69 0 2.38 0 0 Z " fill="#B89700" transform="translate(178,271)"/>
<path d="M0 0 C0.66 0 1.32 0 2 0 C2 2.31 2 4.62 2 7 C1.01 7.33 0.02 7.66 -1 8 C-1.33 6.35 -1.66 4.7 -2 3 C-1.34 3 -0.68 3 0 3 C0 2.01 0 1.02 0 0 Z " fill="#C4A100" transform="translate(316,254)"/>
<path d="M0 0 C-4.12168689 1.62950412 -6.70700357 2.26264601 -11 1 C-11 0.67 -11 0.34 -11 0 C-3.375 -2.25 -3.375 -2.25 0 0 Z " fill="#C09E00" transform="translate(186,327)"/>
<path d="M0 0 C-1.485 1.98 -1.485 1.98 -3 4 C-5.96175123 3.38722388 -7.38058783 2.74627478 -10 1 C-6.59437148 0.22157062 -3.49234244 -0.09978121 0 0 Z " fill="#D0AB00" transform="translate(245,287)"/>
<path d="M0 0 C2.375 -0.125 2.375 -0.125 5 0 C7 2 7 2 7.125 4.625 C7.08375 5.40875 7.0425 6.1925 7 7 C6.34 7 5.68 7 5 7 C4.731875 6.21625 4.46375 5.4325 4.1875 4.625 C3.15185568 1.71885077 3.15185568 1.71885077 0 0 Z " fill="#A38600" transform="translate(136,246)"/>
<path d="M0 0 C0 0.66 0 1.32 0 2 C-0.66 2.66 -1.32 3.32 -2 4 C-5.625 3.625 -5.625 3.625 -9 3 C-9 2.34 -9 1.68 -9 1 C-2.25 0 -2.25 0 0 0 Z " fill="#463900" transform="translate(243,311)"/>
<path d="M0 0 C0.66 0 1.32 0 2 0 C2.25 6.625 2.25 6.625 0 10 C-0.54372951 6.94152152 -1 4.11227195 -1 1 C-0.67 0.67 -0.34 0.34 0 0 Z " fill="#3D3200" transform="translate(163,244)"/>
<path d="M0 0 C1.485 0.99 1.485 0.99 3 2 C2.67 4.64 2.34 7.28 2 10 C1.34 10 0.68 10 0 10 C0 6.7 0 3.4 0 0 Z " fill="#B59500" transform="translate(157,240)"/>
<path d="M0 0 C0.66 0 1.32 0 2 0 C2 0.99 2 1.98 2 3 C2.99 3.33 3.98 3.66 5 4 C4.01 5.32 3.02 6.64 2 8 C1.34 7.67 0.68 7.34 0 7 C0.33 6.01 0.66 5.02 1 4 C0.61067144 1.85744207 0.61067144 1.85744207 0 0 Z " fill="#DCB500" transform="translate(277,229)"/>
<path d="M0 0 C1.32 0.33 2.64 0.66 4 1 C4.33 2.98 4.66 4.96 5 7 C4.01 6.01 3.02 5.02 2 4 C1.01 4.495 1.01 4.495 0 5 C0 3.35 0 1.7 0 0 Z " fill="#AA8C00" transform="translate(318,221)"/>
<path d="M0 0 C2.31 0 4.62 0 7 0 C7 0.66 7 1.32 7 2 C4.03 2.66 1.06 3.32 -2 4 C-1.34 2.68 -0.68 1.36 0 0 Z " fill="#CAA700" transform="translate(194,319)"/>
<path d="M0 0 C1.65 0.33 3.3 0.66 5 1 C3.68 2.32 2.36 3.64 1 5 C-0.32 4.34 -1.64 3.68 -3 3 C-1.68 2.67 -0.36 2.34 1 2 C0.67 1.34 0.34 0.68 0 0 Z " fill="#866E00" transform="translate(314,281)"/>
<path d="M0 0 C0.66 0 1.32 0 2 0 C2 1.98 2 3.96 2 6 C0.68 6.33 -0.64 6.66 -2 7 C-1.34 4.69 -0.68 2.38 0 0 Z " fill="#0B0900" transform="translate(255,242)"/>
<path d="M0 0 C0.99 0.99 1.98 1.98 3 3 C0.29120665 4.35439668 -2.00933268 4.06501451 -5 4 C-3 1 -3 1 0 0 Z " fill="#4D3F00" transform="translate(164,311)"/>
</svg>
